<svg width="588" height="34" viewBox="0 0 588 34" fill="none" xmlns="http://www.w3.org/2000/svg">
<path d="M16.0657 31.6425C13.9834 31.6425 12.0236 31.2343 10.1864 30.4585C8.3491 29.6828 6.75679 28.5804 5.40946 27.2331C4.06212 25.8857 2.95976 24.2934 2.18402 22.4562C1.40828 20.6189 1 18.6591 1 16.5769C1 14.4946 1.40828 12.5349 2.18402 10.6976C2.95976 8.86033 4.06212 7.26803 5.40946 5.9207C6.75679 4.57336 8.3491 3.47099 10.1864 2.69526C12.0236 1.91952 13.9834 1.51123 16.0657 1.51123C18.1479 1.51123 20.1077 1.91952 21.9449 2.69526C23.7822 3.47099 25.3745 4.57336 26.7218 5.9207C28.0692 7.26803 29.1715 8.86033 29.9473 10.6976C30.723 12.5349 31.1313 14.4946 31.1313 16.5769V18.5775C31.1313 19.9656 30.6414 21.1905 29.6615 22.1295C28.6816 23.1094 27.4568 23.5994 26.0278 23.5994C25.1295 23.5994 24.2721 23.3952 23.4556 22.9461C22.639 22.497 22.0266 21.8846 21.6183 21.068C20.9651 21.9254 20.1485 22.5378 19.1686 22.9869C18.1887 23.3952 17.168 23.5994 16.0657 23.5994C14.1059 23.5994 12.4319 22.9053 11.0846 21.5579C9.69643 20.2106 9.04318 18.5367 9.04318 16.5769C9.04318 14.6171 9.73726 12.9432 11.0846 11.555C12.4728 10.1668 14.1059 9.47276 16.0657 9.47276C18.0254 9.47276 19.6994 10.1668 21.0467 11.555C22.4349 12.9432 23.0881 14.6171 23.0881 16.5769V18.5775C23.0881 19.3532 23.3739 20.0065 23.9455 20.5372C24.5171 21.068 25.2112 21.313 25.9869 21.313C26.7627 21.313 27.4568 21.068 27.9875 20.5372C28.5183 20.0065 28.8449 19.3532 28.8449 18.5775V16.5769C28.8449 13.0248 27.6201 9.96269 25.1295 7.47216C22.639 4.98163 19.6177 3.75679 16.0248 3.75679C12.4319 3.75679 9.41064 4.98163 6.92011 7.47216C4.42958 9.96269 3.20473 12.984 3.20473 16.5769C3.20473 20.1698 4.42958 23.1911 6.92011 25.6816C9.41064 28.1721 12.4319 29.397 16.0248 29.397H24.1088V31.6425H16.0248H16.0657ZM16.0657 21.313C17.413 21.313 18.5154 20.8639 19.4544 19.9248C20.3935 18.9858 20.8426 17.8834 20.8426 16.5361C20.8426 15.1887 20.3935 14.0455 19.4544 13.1065C18.5154 12.1674 17.413 11.7183 16.0657 11.7183C14.7183 11.7183 13.616 12.1674 12.6769 13.1065C11.7379 14.0455 11.2887 15.1887 11.2887 16.5361C11.2887 17.8834 11.7379 18.9858 12.6769 19.9248C13.616 20.823 14.7183 21.313 16.0657 21.313Z" fill="#005B26" stroke="#005B26" stroke-miterlimit="10"/>
<path d="M61.834 0V15.5148L66.5701 10.6562H71.0612L64.8145 16.6988L71.5103 25.1911H67.2233L62.4464 18.9852L61.834 19.5976V25.1911H58.4453V0H61.834Z" fill="#10552D"/>
<path d="M88.9847 17.9643C88.9847 22.4146 85.596 25.6809 81.1865 25.6809C76.7771 25.6809 73.3883 22.4146 73.3883 17.9643C73.3883 13.514 76.7771 10.2886 81.1865 10.2886C85.596 10.2886 88.9847 13.4732 88.9847 17.9643ZM85.5143 17.9643C85.5143 14.6572 83.3504 13.3099 81.1865 13.3099C79.0226 13.3099 76.8587 14.6572 76.8587 17.9643C76.8587 20.7815 78.5327 22.5779 81.1865 22.5779C83.8404 22.5779 85.5143 20.7406 85.5143 17.9643Z" fill="#10552D"/>
<path d="M93.3534 10.656H96.7421V12.0034C98.212 10.3702 99.8451 10.2886 100.662 10.2886C103.356 10.2886 104.5 11.6359 104.949 12.2483C105.479 13.0649 105.847 14.0448 105.847 16.2903V25.1909H102.458V17.1069C102.458 13.3915 101.07 13.3099 99.8043 13.3099C98.2936 13.3099 96.7421 13.514 96.7421 18.2093V25.1909H93.3534V10.6152V10.656Z" fill="#10552D"/>
<path d="M114.543 13.7593V25.1912H111.155V13.7593H109.726V10.6563H111.155V5.34863H114.543V10.6563H117.116V13.7593H114.543Z" fill="#10552D"/>
<path d="M130.916 10.656H134.304V25.2317H130.916V23.7211C129.446 25.4359 127.608 25.6809 126.547 25.6809C122.056 25.6809 119.484 21.9246 119.484 17.9235C119.484 13.1874 122.75 10.2886 126.588 10.2886C127.649 10.2886 129.527 10.5744 130.916 12.3708V10.656ZM122.954 18.0051C122.954 20.5365 124.546 22.6187 126.996 22.6187C129.119 22.6187 131.12 21.0673 131.12 18.0051C131.12 14.943 129.16 13.3099 126.996 13.3099C124.546 13.3099 122.954 15.3921 122.954 17.9643V18.0051Z" fill="#10552D"/>
<path d="M142.878 -0.000244141V15.5145L147.614 10.656H152.105L145.859 16.6985L152.554 25.1908H148.267L143.491 18.9849L142.878 19.5974V25.1908H139.489V-0.000244141H142.878Z" fill="#10552D"/>
<path d="M159.128 13.7593V25.1912H155.739V13.7593H154.31V10.6563H155.739V5.34863H159.128V10.6563H161.7V13.7593H159.128Z" fill="#10552D"/>
<path d="M179.461 8.24702H181.829L180.481 15.1878C180.359 15.7186 180.277 16.2085 180.277 16.7393C180.277 17.8008 180.93 18.1275 181.379 18.1275C182.196 18.1275 183.053 17.3517 183.462 16.7393C184.278 15.5145 184.687 13.2689 184.687 12.0849C184.687 8.24701 182.033 3.87839 176.072 3.87839C170.519 3.87839 166.15 8.20619 166.15 13.8813C166.15 17.8417 168.355 21.4346 172.111 22.8636C173.336 23.3535 174.643 23.5576 176.072 23.5576C177.705 23.5576 180.44 23.3127 183.094 22.1286L183.666 24.2926C182.645 24.7008 180.032 25.6399 176.235 25.6399C173.05 25.6399 170.192 24.8641 167.865 22.8227C166.232 21.3937 163.946 18.6174 163.946 13.8405C163.946 6.89968 169.049 1.79614 175.99 1.79614C182.033 1.79614 186.932 5.63401 186.932 12.0441C186.932 13.963 186.442 16.3719 185.258 17.9233C184.36 19.1073 182.89 20.0872 181.298 20.0872C179.828 20.0872 178.93 19.1482 178.685 17.9233C177.582 19.6381 175.786 20.2914 174.398 20.2914C172.479 20.2914 169.539 19.0257 169.539 14.7387C169.539 10.1251 172.805 7.7979 175.582 7.7979C177.215 7.7979 178.562 8.57365 179.216 10.0026L179.542 8.20618L179.461 8.24702ZM178.399 13.2281C178.399 11.105 177.133 10.2476 175.786 10.2476C173.867 10.2476 172.111 11.8399 172.111 14.7387C172.111 16.9026 173.336 17.8825 174.684 17.8825C176.562 17.8825 178.399 16.0452 178.399 13.2281Z" fill="#10552D"/>
<path d="M194.444 33.1519H191.056V10.6963H194.444V12.2886C195.71 10.8188 197.302 10.3289 198.772 10.3289C202.61 10.3289 205.876 13.2685 205.876 17.8821C205.876 22.7815 202.283 25.6803 198.813 25.6803C198.037 25.6803 195.996 25.3945 194.444 23.5164V33.1111V33.1519ZM194.24 18.0454C194.24 21.1075 196.2 22.659 198.364 22.659C200.814 22.659 202.406 20.5359 202.406 18.0454C202.406 15.5549 200.814 13.391 198.364 13.391C196.241 13.391 194.24 14.9016 194.24 18.0862V18.0454Z" fill="#10552D"/>
<path d="M225.025 17.9643C225.025 22.4146 221.636 25.6809 217.227 25.6809C212.817 25.6809 209.428 22.4146 209.428 17.9643C209.428 13.514 212.817 10.2886 217.227 10.2886C221.636 10.2886 225.025 13.4732 225.025 17.9643ZM221.554 17.9643C221.554 14.6572 219.39 13.3099 217.227 13.3099C215.063 13.3099 212.899 14.6572 212.899 17.9643C212.899 20.7815 214.573 22.5779 217.227 22.5779C219.88 22.5779 221.554 20.7406 221.554 17.9643Z" fill="#10552D"/>
<path d="M229.434 10.6551H232.823V11.9616C233.19 11.5125 233.762 11.0226 234.252 10.7368C234.905 10.3693 235.559 10.2468 236.334 10.2468C237.151 10.2468 238.049 10.3693 238.988 10.9409L237.6 14.003C236.824 13.5131 236.212 13.4723 235.885 13.4723C235.15 13.4723 234.415 13.5948 233.762 14.248C232.823 15.2687 232.823 16.6161 232.823 17.5959V25.1492H229.434V10.5735V10.6551Z" fill="#10552D"/>
<path d="M251.726 10.656H255.115V25.2317H251.726V23.7211C250.257 25.4359 248.419 25.6809 247.358 25.6809C242.867 25.6809 240.295 21.9246 240.295 17.9235C240.295 13.1874 243.561 10.2886 247.399 10.2886C248.46 10.2886 250.338 10.5744 251.726 12.3708V10.656ZM243.765 18.0051C243.765 20.5365 245.357 22.6187 247.807 22.6187C249.93 22.6187 251.931 21.0673 251.931 18.0051C251.931 14.943 249.971 13.3099 247.807 13.3099C245.357 13.3099 243.765 15.3921 243.765 17.9643V18.0051Z" fill="#10552D"/>
<path d="M270.916 -0.000244141H274.305V25.1908H270.916V23.6802C269.446 25.395 267.609 25.6399 266.547 25.6399C262.056 25.6399 259.484 21.8837 259.484 17.8826C259.484 13.1465 262.75 10.2477 266.588 10.2477C267.65 10.2477 269.528 10.5335 270.916 12.3299V-0.000244141ZM262.954 17.9642C262.954 20.4956 264.547 22.5778 266.996 22.5778C269.119 22.5778 271.12 21.0264 271.12 17.9642C271.12 14.9021 269.16 13.269 266.996 13.269C264.547 13.269 262.954 15.3512 262.954 17.9234V17.9642Z" fill="#10552D"/>
<path d="M279.408 10.656H282.797V12.0034C284.267 10.3702 285.9 10.2886 286.716 10.2886C289.411 10.2886 290.554 11.6359 291.003 12.2483C291.534 13.0649 291.902 14.0448 291.902 16.2903V25.1909H288.513V17.1069C288.513 13.3915 287.125 13.3099 285.859 13.3099C284.348 13.3099 282.797 13.514 282.797 18.2093V25.1909H279.408V10.6152V10.656Z" fill="#10552D"/>
<path d="M298.802 2.4502C300.027 2.4502 300.966 3.38924 300.966 4.61409C300.966 5.83894 300.027 6.778 298.802 6.778C297.577 6.778 296.638 5.83894 296.638 4.61409C296.638 3.38924 297.577 2.4502 298.802 2.4502ZM300.517 10.6567V25.2324H297.128V10.6567H300.517Z" fill="#10552D"/>
<path d="M316.276 10.656H319.665V25.2317H316.276V23.7211C314.806 25.4359 312.969 25.6809 311.907 25.6809C307.416 25.6809 304.844 21.9246 304.844 17.9235C304.844 13.1874 308.11 10.2886 311.948 10.2886C313.01 10.2886 314.888 10.5744 316.276 12.3708V10.656ZM308.314 18.0051C308.314 20.5365 309.907 22.6187 312.356 22.6187C314.48 22.6187 316.48 21.0673 316.48 18.0051C316.48 14.943 314.52 13.3099 312.356 13.3099C309.907 13.3099 308.314 15.3921 308.314 17.9643V18.0051Z" fill="#10552D"/>
<path d="M335.506 -0.000244141H338.895V25.1908H335.506V23.6802C334.036 25.395 332.199 25.6399 331.138 25.6399C326.646 25.6399 324.074 21.8837 324.074 17.8826C324.074 13.1465 327.341 10.2477 331.178 10.2477C332.24 10.2477 334.118 10.5335 335.506 12.3299V-0.000244141ZM327.545 17.9642C327.545 20.4956 329.137 22.5778 331.587 22.5778C333.71 22.5778 335.71 21.0264 335.71 17.9642C335.71 14.9021 333.751 13.269 331.587 13.269C329.137 13.269 327.545 15.3512 327.545 17.9234V17.9642Z" fill="#10552D"/>
<path d="M345.713 2.4502C346.938 2.4502 347.877 3.38924 347.877 4.61409C347.877 5.83894 346.938 6.778 345.713 6.778C344.489 6.778 343.55 5.83894 343.55 4.61409C343.55 3.38924 344.489 2.4502 345.713 2.4502ZM347.428 10.6567V25.2324H344.039V10.6567H347.428Z" fill="#10552D"/>
<path d="M365.597 21.8838C364.984 22.9862 364.086 23.9661 363.147 24.5377C361.963 25.3134 360.411 25.64 358.86 25.64C356.941 25.64 355.349 25.1501 353.961 23.7619C352.572 22.3738 351.797 20.3732 351.797 18.2093C351.797 16.0454 352.572 13.7998 354.124 12.2483C355.349 11.0235 356.941 10.2886 358.982 10.2886C361.31 10.2886 362.779 11.3093 363.637 12.2075C365.515 14.1264 365.678 16.8211 365.678 18.3726V18.7809H355.226C355.308 19.8016 355.757 20.9856 356.451 21.7205C357.268 22.5371 358.207 22.6596 359.064 22.6596C360.003 22.6596 360.697 22.4554 361.391 21.9246C361.963 21.4755 362.412 20.9039 362.739 20.3323L365.556 21.9246L365.597 21.8838ZM362.249 15.9637C362.126 15.1471 361.718 14.4939 361.228 14.004C360.779 13.5957 360.044 13.1874 358.942 13.1874C357.758 13.1874 357.023 13.6773 356.574 14.1264C356.084 14.5755 355.716 15.2696 355.553 16.0045H362.29L362.249 15.9637Z" fill="#10552D"/>
<path d="M373.599 13.7593V25.1912H370.21V13.7593H368.781V10.6563H370.21V5.34863H373.599V10.6563H376.171V13.7593H373.599Z" fill="#10552D"/>
<path d="M392.38 21.8838C391.768 22.9862 390.87 23.9661 389.931 24.5377C388.747 25.3134 387.195 25.64 385.644 25.64C383.725 25.64 382.132 25.1501 380.744 23.7619C379.356 22.3738 378.58 20.3732 378.58 18.2093C378.58 16.0454 379.356 13.7998 380.908 12.2483C382.132 11.0235 383.725 10.2886 385.766 10.2886C388.093 10.2886 389.563 11.3093 390.421 12.2075C392.299 14.1264 392.462 16.8211 392.462 18.3726V18.7809H382.01C382.092 19.8016 382.541 20.9856 383.235 21.7205C384.051 22.5371 384.99 22.6596 385.848 22.6596C386.787 22.6596 387.481 22.4554 388.175 21.9246C388.747 21.4755 389.196 20.9039 389.522 20.3323L392.339 21.9246L392.38 21.8838ZM389.032 15.9637C388.91 15.1471 388.502 14.4939 388.012 14.004C387.563 13.5957 386.828 13.1874 385.725 13.1874C384.541 13.1874 383.806 13.6773 383.357 14.1264C382.867 14.5755 382.5 15.2696 382.336 16.0045H389.073L389.032 15.9637Z" fill="#10552D"/>
<path d="M400.383 13.7593V25.1912H396.994V13.7593H395.565V10.6563H396.994V5.34863H400.383V10.6563H402.955V13.7593H400.383Z" fill="#10552D"/>
<path d="M411.12 22.9448L404.914 10.6555H408.997L413.162 19.1478L417.367 10.6555H421.164L409.569 33.1111H405.772L411.12 22.904V22.9448Z" fill="#10552D"/>
<path d="M435.291 15.1054C433.739 13.5948 432.228 13.309 431.167 13.309C429.575 13.309 428.554 13.9622 427.942 14.5746C427.329 15.1871 426.717 16.2894 426.717 17.9226C426.717 19.5557 427.37 20.7397 428.023 21.4338C428.799 22.1687 429.86 22.6178 431.085 22.6178C432.473 22.6178 434.107 22.0462 435.291 20.7397V24.4959C434.474 25.0267 433.127 25.6391 430.881 25.6391C428.472 25.6391 426.717 24.945 425.328 23.4752C424.308 22.4137 423.246 20.6581 423.246 18.0042C423.246 15.3504 424.389 13.4314 425.451 12.3699C426.594 11.2267 428.431 10.2468 431.289 10.2468C432.392 10.2468 433.698 10.4101 435.25 11.2675V15.0646L435.291 15.1054Z" fill="#10552D"/>
<path d="M443.865 22.1294H452.52V25.2324H437.21L446.641 13.8005H439.21V10.6975H453.255L443.906 22.1294H443.865Z" fill="#10552D"/>
<path d="M456.481 10.656H459.869V12.0034C461.339 10.3702 462.972 10.2886 463.789 10.2886C466.484 10.2886 467.627 11.6359 468.076 12.2483C468.607 13.0649 468.974 14.0448 468.974 16.2903V25.1909H465.585V17.1069C465.585 13.3915 464.197 13.3099 462.931 13.3099C461.421 13.3099 459.869 13.514 459.869 18.2093V25.1909H456.481V10.6152V10.656Z" fill="#10552D"/>
<path d="M484.815 10.656H488.204V25.2317H484.815V23.7211C483.346 25.4359 481.508 25.6809 480.447 25.6809C475.956 25.6809 473.384 21.9246 473.384 17.9235C473.384 13.1874 476.65 10.2886 480.488 10.2886C481.549 10.2886 483.427 10.5744 484.815 12.3708V10.656ZM476.854 18.0051C476.854 20.5365 478.446 22.6187 480.896 22.6187C483.019 22.6187 485.02 21.0673 485.02 18.0051C485.02 14.943 483.06 13.3099 480.896 13.3099C478.446 13.3099 476.854 15.3921 476.854 17.9643V18.0051Z" fill="#10552D"/>
<path d="M495.349 21.4749C496.492 21.4749 497.431 22.4139 497.431 23.5571C497.431 24.7003 496.492 25.6393 495.349 25.6393C494.206 25.6393 493.267 24.7003 493.267 23.5571C493.267 22.4139 494.206 21.4749 495.349 21.4749Z" fill="#10552D"/>
<path d="M517.315 17.9643C517.315 22.4146 513.926 25.6809 509.517 25.6809C505.107 25.6809 501.718 22.4146 501.718 17.9643C501.718 13.514 505.107 10.2886 509.517 10.2886C513.926 10.2886 517.315 13.4732 517.315 17.9643ZM513.844 17.9643C513.844 14.6572 511.681 13.3099 509.517 13.3099C507.353 13.3099 505.189 14.6572 505.189 17.9643C505.189 20.7815 506.863 22.5779 509.517 22.5779C512.17 22.5779 513.844 20.7406 513.844 17.9643Z" fill="#10552D"/>
<path d="M521.684 10.656H525.072V12.0034C526.542 10.3702 528.175 10.2886 528.992 10.2886C531.686 10.2886 532.83 11.6359 533.279 12.2483C533.81 13.0649 534.177 14.0448 534.177 16.2903V25.1909H530.788V17.1069C530.788 13.3915 529.4 13.3099 528.134 13.3099C526.624 13.3099 525.072 13.514 525.072 18.2093V25.1909H521.684V10.6152V10.656Z" fill="#10552D"/>
<path d="M542.751 -0.000244141V25.1908H539.362V-0.000244141H542.751Z" fill="#10552D"/>
<path d="M549.61 2.4502C550.835 2.4502 551.774 3.38924 551.774 4.61409C551.774 5.83894 550.835 6.778 549.61 6.778C548.385 6.778 547.446 5.83894 547.446 4.61409C547.446 3.38924 548.385 2.4502 549.61 2.4502ZM551.325 10.6567V25.2324H547.936V10.6567H551.325Z" fill="#10552D"/>
<path d="M556.428 10.656H559.817V12.0034C561.287 10.3702 562.92 10.2886 563.737 10.2886C566.431 10.2886 567.574 11.6359 568.024 12.2483C568.554 13.0649 568.922 14.0448 568.922 16.2903V25.1909H565.533V17.1069C565.533 13.3915 564.145 13.3099 562.879 13.3099C561.369 13.3099 559.817 13.514 559.817 18.2093V25.1909H556.428V10.6152V10.656Z" fill="#10552D"/>
<path d="M587.131 21.8838C586.519 22.9862 585.621 23.9661 584.682 24.5377C583.497 25.3134 581.946 25.64 580.395 25.64C578.476 25.64 576.883 25.1501 575.495 23.7619C574.107 22.3738 573.331 20.3732 573.331 18.2093C573.331 16.0454 574.107 13.7998 575.658 12.2483C576.883 11.0235 578.476 10.2886 580.517 10.2886C582.844 10.2886 584.314 11.3093 585.171 12.2075C587.05 14.1264 587.213 16.8211 587.213 18.3726V18.7809H576.761C576.842 19.8016 577.292 20.9856 577.986 21.7205C578.802 22.5371 579.741 22.6596 580.599 22.6596C581.538 22.6596 582.232 22.4554 582.926 21.9246C583.498 21.4755 583.947 20.9039 584.273 20.3323L587.09 21.9246L587.131 21.8838ZM583.783 15.9637C583.661 15.1471 583.253 14.4939 582.763 14.004C582.313 13.5957 581.579 13.1874 580.476 13.1874C579.292 13.1874 578.557 13.6773 578.108 14.1264C577.618 14.5755 577.251 15.2696 577.087 16.0045H583.824L583.783 15.9637Z" fill="#10552D"/>
</svg>
