<svg width="667" height="1056" viewBox="0 0 667 1056" fill="none" xmlns="http://www.w3.org/2000/svg">
<g clip-path="url(#clip0_31_1693)">
<path d="M333.5 722.685C437.597 722.685 541.627 722.685 645.724 722.685C669.081 722.685 670.557 724.496 662.906 746.891C653.308 775.12 632.972 792.285 604.112 797.783C591.897 800.063 589.481 805.159 589.548 816.223C589.548 849.145 591.36 882.202 587.87 915.057C578.608 1001.15 518.673 1055.2 432.496 1055.13C366.454 1055.13 300.278 1052.31 234.437 1055.8C137.051 1060.96 81.2106 978.756 78.2575 904.329C77.1165 875.698 77.3178 846.932 78.0561 818.301C78.3917 805.427 74.9688 799.795 61.1429 797.247C32.9541 792.084 13.826 774.449 4.36262 747.159C-3.42285 724.764 -1.9463 722.685 21.4101 722.685C125.507 722.685 229.537 722.685 333.634 722.685H333.5Z" fill="url(#paint0_linear_31_1693)"/>
<path d="M468.941 294.626C465.585 294.09 459.947 294.492 455.786 292.279C419.275 272.566 390.482 292.078 363.904 312.529C349.809 323.391 341.219 323.458 330.01 311.389C325.178 306.159 319.339 301.8 313.567 297.576C305.647 291.81 304.774 285.976 310.345 277.595C320.815 261.838 326.252 244.002 328.534 225.227C330.413 209.47 330.279 195.456 319.137 181.04C302.694 159.718 307.526 128.605 326.252 110.099C345.044 91.5258 375.381 87.838 397.462 103.193C406.925 109.764 412.429 111.91 422.966 103.93C444.443 87.7039 473.102 89.9836 492.632 106.411C512.096 122.772 519.345 148.587 507.599 172.524C501.358 185.264 505.049 190.293 513.573 199.077C530.486 216.578 533.506 238.168 523.774 260.832C514.781 281.618 493.706 294.894 469.008 294.425L468.941 294.626ZM387.998 251.713C397.462 251.31 408.939 258.418 414.375 246.08C416.12 242.191 415.986 235.151 410.013 233.408C395.247 229.116 394.173 243.398 387.931 251.713H387.998ZM368.803 235.553C375.85 228.312 387.73 224.154 383.032 211.75C380.347 204.575 372.428 205.447 368.535 208.397C357.93 216.443 367.931 226.166 368.803 235.553Z" fill="#005B26"/>
<path d="M171.549 436.642C184.771 432.954 191.147 420.549 201.281 412.838C206.449 408.882 211.617 407.273 217.121 409.419C226.383 413.04 215.98 419.141 218.262 423.835C240.88 410.693 248.934 414.783 256.115 443.012C256.384 444.085 257.256 445.895 257.592 445.828C290.546 440.33 281.082 473.453 292.492 486.998C303.566 500.14 302.962 522.871 308.13 541.243C311.352 552.709 307.929 557.067 297.123 551.904C280.277 543.791 260.209 544.394 245.309 530.112C236.383 521.597 213.966 527.832 217.926 504.834C213.228 504.431 209.402 508.924 203.832 505.973C188.261 497.726 187.522 485.925 202.221 468.156C179.67 478.214 176.515 476.337 173.428 450.991C172.824 446.096 172.421 441.134 171.884 436.239L171.549 436.642Z" fill="#FF9B4C"/>
<path d="M422.362 342.635C423.771 353.766 427.731 357.387 438.201 359.666C468.202 366.237 485.182 389.236 483.37 416.526C481.759 440.866 461.289 459.976 432.698 463.798C403.368 467.754 374.172 452.332 365.581 428.394C357.527 405.932 371.957 378.374 399.542 366.774C410.482 362.147 419.878 357.856 422.295 342.635H422.362Z" fill="#F39B9B"/>
<path d="M431.154 614.933C408.402 614.463 389.072 598.438 389.945 580.736C390.75 563.37 407.932 551.233 431.154 551.636C456.658 552.038 474.31 565.65 473.84 584.625C473.437 602.528 455.182 615.469 431.154 614.933Z" fill="#FF6056"/>
<path d="M192.69 128.74C211.08 129.008 226.047 132.897 234.437 148.654C242.423 163.674 233.698 177.017 217.658 184.124C201.416 191.299 190.543 193.713 172.623 182.985C159.065 174.871 153.159 168.77 154.099 155.292C155.173 140.205 166.649 133.768 179.67 130.081C184.368 128.74 189.536 129.008 192.69 128.74Z" fill="#FF6056"/>
<path d="M171.884 436.24C159.267 427.59 143.897 426.45 130.004 421.153C123.628 418.739 114.299 418.203 116.312 408.145C118.93 395.405 127.789 406.066 133.561 404.658C135.507 404.189 137.722 404.591 141.414 404.591C136.514 395.338 127.521 393.863 121.279 388.968C116.983 385.615 117.453 381.726 120.071 377.77C122.822 373.546 126.245 375.558 129.333 377.368C140.407 383.738 151.414 390.242 165.173 398.221C163.562 382.397 154.904 372.406 150.81 360.739C149.468 356.917 145.373 352.894 150.81 349.743C155.911 346.792 160.273 348.335 163.025 353.967C166.448 360.94 170.139 367.78 174.502 376.161C175.844 373.948 176.515 373.01 177.052 372.071C181.012 364.628 166.112 351.62 181.415 349.072C194.771 346.859 190.677 362.08 194.57 369.523C210.677 400.099 188.596 417.398 171.616 436.575L171.884 436.24Z" fill="#82ED9A"/>
<path d="M183.026 669.714C197.254 620.967 215.711 608.697 262.223 616.676C295.042 622.308 324.171 635.316 343.97 666.697C289.74 624.655 236.786 639.943 183.026 669.714Z" fill="#FFEC86"/>
<path d="M350.413 41.3039C291.015 27.8936 231.483 20.5849 187.858 87.5027C190.006 54.245 223.362 22.4624 261.283 6.36992C304.304 -11.9352 329.137 12.4716 350.413 41.3039Z" fill="#FFEC86"/>
<path d="M224.101 259.826C232.557 281.685 261.686 291.474 240.611 315.278C232.222 324.799 219.336 325.805 209.939 316.552C185.576 292.547 216.986 281.886 224.101 259.826Z" fill="#2B6F4A"/>
</g>
<defs>
<linearGradient id="paint0_linear_31_1693" x1="7.02019e-05" y1="889.309" x2="667" y2="889.309" gradientUnits="userSpaceOnUse">
<stop stop-color="#FF6056"/>
<stop offset="1" stop-color="#EC6545"/>
</linearGradient>
<clipPath id="clip0_31_1693">
<rect width="667" height="1056" fill="white"/>
</clipPath>
</defs>
</svg>
