<svg width="59" height="59" viewBox="0 0 59 59" fill="none" xmlns="http://www.w3.org/2000/svg">
<path fill-rule="evenodd" clip-rule="evenodd" d="M17.0955 0.520229C20.1982 0.378017 21.1872 0.345703 29.0877 0.345703C36.9897 0.345703 37.9771 0.37963 41.0782 0.520229C44.176 0.660828 46.2915 1.15371 48.1417 1.87281C50.0824 2.60346 51.8403 3.74827 53.2934 5.22759C54.7729 6.68047 55.9179 8.43858 56.6483 10.3793C57.3673 12.2296 57.8586 14.345 58.0008 17.4412C58.1431 20.5439 58.1754 21.5329 58.1754 29.4334C58.1754 37.3339 58.1415 38.3228 58.0008 41.4257C57.8602 44.5217 57.3673 46.6372 56.6483 48.4874C55.9049 50.3993 54.9093 52.0231 53.2934 53.6391C51.8406 55.1186 50.0824 56.2636 48.1417 56.994C46.2915 57.713 44.176 58.2043 41.08 58.3465C37.9771 58.4888 36.9882 58.5211 29.0877 58.5211C21.1872 58.5211 20.1982 58.4872 17.0955 58.3465C13.9993 58.2059 11.8839 57.713 10.0336 56.994C8.12192 56.2506 6.49787 55.255 4.88189 53.6391C3.40231 52.1863 2.25742 50.4281 1.5271 48.4874C0.808003 46.6372 0.316738 44.5217 0.174526 41.4257C0.0323137 38.3228 0 37.3355 0 29.4334C0 21.5312 0.0339268 20.5439 0.174526 17.4428C0.315125 14.345 0.808003 12.2296 1.5271 10.3793C2.25776 8.43872 3.40257 6.68068 4.88189 5.22759C6.33474 3.74801 8.09285 2.60312 10.0336 1.87281C11.8839 1.15371 13.9993 0.662442 17.0955 0.520229ZM40.8423 5.75601C37.7751 5.61703 36.8541 5.58632 29.0877 5.58632C21.3213 5.58632 20.4002 5.61703 17.333 5.75601C14.497 5.88529 12.957 6.35876 11.9324 6.75792C10.575 7.28473 9.60539 7.91495 8.58732 8.93302C7.57089 9.95109 6.93903 10.9207 6.41222 12.2781C6.01306 13.3027 5.53959 14.8427 5.41031 17.6787C5.27132 20.7459 5.24062 21.667 5.24062 29.4334C5.24062 37.1998 5.27132 38.1208 5.41031 41.188C5.53959 44.024 6.01306 45.5641 6.41222 46.5888C6.87821 47.8522 7.62147 48.9951 8.58732 49.9339C9.52579 50.8996 10.6689 51.6429 11.9324 52.1088C12.957 52.5081 14.497 52.9815 17.333 53.1108C20.4002 53.2499 21.3197 53.2805 29.0877 53.2805C36.8557 53.2805 37.7751 53.2499 40.8423 53.1108C43.6783 52.9815 45.2184 52.5081 46.2431 52.1088C47.6004 51.5821 48.5701 50.9519 49.5882 49.9339C50.5539 48.9954 51.2972 47.8522 51.7631 46.5888C52.1624 45.5641 52.6357 44.024 52.7651 41.188C52.9041 38.1208 52.9348 37.1998 52.9348 29.4334C52.9348 21.667 52.9041 20.7459 52.7651 17.6787C52.6357 14.8427 52.1624 13.3027 51.7631 12.2781C51.2364 10.9207 50.6062 9.95109 49.5882 8.93302C48.5701 7.91659 47.6004 7.28473 46.2431 6.75792C45.2184 6.35876 43.6783 5.88529 40.8423 5.75601ZM25.3737 38.4001C26.5512 38.8879 27.8131 39.1389 29.0877 39.1389C31.6619 39.1389 34.1304 38.1163 35.9505 36.2962C37.7709 34.4761 38.7934 32.0074 38.7934 29.4334C38.7934 26.8594 37.7709 24.3906 35.9505 22.5705C34.1304 20.7503 31.6619 19.7278 29.0877 19.7278C27.8131 19.7278 26.5512 19.9788 25.3737 20.4666C24.1959 20.9543 23.1261 21.6692 22.2249 22.5705C21.3236 23.4717 20.6087 24.5416 20.121 25.7192C19.6332 26.8967 19.3822 28.1588 19.3822 29.4334C19.3822 30.708 19.6332 31.9701 20.121 33.1476C20.6087 34.3251 21.3236 35.395 22.2249 36.2962C23.1261 37.1974 24.1959 37.9124 25.3737 38.4001ZM18.5158 18.8614C21.3196 16.0575 25.1225 14.4823 29.0877 14.4823C33.0531 14.4823 36.8559 16.0575 39.6597 18.8614C42.4635 21.6652 44.0387 25.4682 44.0387 29.4334C44.0387 33.3986 42.4635 37.2014 39.6597 40.0054C36.8559 42.8092 33.0531 44.3845 29.0877 44.3845C25.1225 44.3845 21.3196 42.8092 18.5158 40.0054C15.7119 37.2014 14.1367 33.3986 14.1367 29.4334C14.1367 25.4682 15.7119 21.6652 18.5158 18.8614ZM47.354 16.7099C48.0166 16.047 48.389 15.1481 48.389 14.2108C48.389 13.2735 48.0166 12.3746 47.354 11.7118C46.691 11.049 45.7922 10.6767 44.8548 10.6767C43.9176 10.6767 43.0186 11.049 42.3559 11.7118C41.693 12.3746 41.3206 13.2735 41.3206 14.2108C41.3206 15.1481 41.693 16.047 42.3559 16.7099C43.0186 17.3726 43.9176 17.745 44.8548 17.745C45.7922 17.745 46.691 17.3726 47.354 16.7099Z" fill="#005B26"/>
</svg>
