<svg width="566" height="230" viewBox="0 0 566 230" fill="none" xmlns="http://www.w3.org/2000/svg">
<path d="M479.546 5.16875C477.306 4.91875 475.153 5.52404 473.368 6.74117C472.123 3.16871 469.133 0.477844 465.399 0.05678C460.479 -0.495867 455.987 3.07002 454.828 8.20174C453.814 7.6491 452.701 7.26749 451.502 7.13591C446.161 6.53721 441.327 10.7807 440.701 16.6164C440.076 22.4521 443.909 29.1299 449.237 28.2746C457.641 26.9259 463.305 21.235 477.28 26.3075C482.358 28.1496 487.456 22.6627 488.081 16.827C488.707 10.9913 484.887 5.77403 479.546 5.16875Z" fill="#005B26"/>
<path d="M464.79 29.547C445.936 29.547 430.652 44.9144 430.652 63.8729C430.652 89.6041 464.79 116.59 464.79 116.59C464.79 116.59 498.929 88.8054 498.929 63.8729C498.929 44.9144 483.645 29.547 464.79 29.547ZM464.79 86.1385C452.829 86.1385 443.139 76.3886 443.139 64.368C443.139 52.3473 452.835 42.5974 464.79 42.5974C476.745 42.5974 486.442 52.3473 486.442 64.368C486.442 76.3886 476.745 86.1385 464.79 86.1385Z" fill="#FF9B4C"/>
<path d="M22.0866 186.59C26.6466 186.59 30.2066 184.67 32.3266 182.55C34.9266 179.95 35.8066 176.83 35.8066 173.31C35.8066 170.43 35.2066 166.59 32.0866 163.59C28.6466 160.27 24.1666 159.91 21.4866 159.91H12.4066V186.59H22.0866ZM19.3266 165.79H21.0066C22.7266 165.79 24.8866 165.95 26.5266 167.47C27.8466 168.71 28.6066 170.83 28.6066 173.31C28.6066 176.27 27.4466 177.95 26.5666 178.79C24.7666 180.55 22.4066 180.71 20.7266 180.71H19.3266V165.79ZM40.2191 159.91V186.59H47.1391V159.91H40.2191ZM67.9181 159.91H52.7581V186.59H67.9181V180.71H59.6781V176.11H67.4781V170.23H59.6781V165.79H67.9181V159.91ZM89.1041 165.79V159.91H70.8241V165.79H76.5041V186.59H83.4241V165.79H89.1041ZM107.332 159.91H92.1722V186.59H107.332V180.71H99.0922V176.11H106.892V170.23H99.0922V165.79H107.332V159.91ZM128.518 165.79V159.91H110.238V165.79H115.918V186.59H122.838V165.79H128.518ZM138.962 186.59H145.922V173.79L155.882 159.91H147.482L142.642 167.19L137.602 159.91H129.322L138.962 173.79V186.59ZM165.108 159.91H158.188V186.59H165.108V175.03L174.148 186.59H183.108L171.548 172.55L182.148 159.91H173.588L165.108 170.91V159.91ZM58.2442 215.27C58.2442 211.71 56.8842 207.95 54.0442 205.27C51.3242 202.67 47.4842 201.31 43.5242 201.31C39.5642 201.31 35.7242 202.67 33.0042 205.27C30.1642 207.95 28.8042 211.71 28.8042 215.27C28.8042 218.79 30.1642 222.51 33.0042 225.23C35.7242 227.83 39.5642 229.19 43.5242 229.19C47.4842 229.19 51.3242 227.83 54.0442 225.23C56.8842 222.51 58.2442 218.79 58.2442 215.27ZM43.5242 208.03C45.3642 208.03 47.4042 208.75 48.8842 210.15C50.1242 211.35 51.0442 213.19 51.0442 215.27C51.0442 217.31 50.1242 219.15 48.8842 220.39C47.6442 221.63 45.8842 222.47 43.5242 222.47C41.2042 222.47 39.4042 221.59 38.1242 220.35C37.1242 219.39 36.0042 217.75 36.0042 215.39C36.0042 213.51 36.6842 211.55 38.1242 210.15C39.5642 208.71 41.6042 208.03 43.5242 208.03ZM69.5805 228.59V212.27L82.3405 228.59H89.2605V201.91H82.3405V218.23L69.5805 201.91H62.6605V228.59H69.5805ZM94.848 201.91V228.59H110.088V222.71H101.768V201.91H94.848ZM113.637 201.91V228.59H120.557V201.91H113.637ZM133.096 228.59V212.27L145.856 228.59H152.776V201.91H145.856V218.23L133.096 201.91H126.176V228.59H133.096ZM173.524 201.91H158.364V228.59H173.524V222.71H165.284V218.11H173.084V212.23H165.284V207.79H173.524V201.91Z" fill="#F39B9B"/>
<path d="M385.748 186.59C390.308 186.59 393.868 184.67 395.988 182.55C398.588 179.95 399.468 176.83 399.468 173.31C399.468 170.43 398.868 166.59 395.748 163.59C392.308 160.27 387.828 159.91 385.148 159.91H376.068V186.59H385.748ZM382.988 165.79H384.668C386.388 165.79 388.548 165.95 390.188 167.47C391.508 168.71 392.268 170.83 392.268 173.31C392.268 176.27 391.108 177.95 390.228 178.79C388.428 180.55 386.068 180.71 384.388 180.71H382.988V165.79ZM403.881 159.91V186.59H410.801V159.91H403.881ZM431.58 159.91H416.42V186.59H431.58V180.71H423.34V176.11H431.14V170.23H423.34V165.79H431.58V159.91ZM452.766 165.79V159.91H434.486V165.79H440.166V186.59H447.086V165.79H452.766ZM470.994 159.91H455.834V186.59H470.994V180.71H462.754V176.11H470.554V170.23H462.754V165.79H470.994V159.91ZM492.18 165.79V159.91H473.9V165.79H479.58V186.59H486.5V165.79H492.18ZM502.624 186.59H509.584V173.79L519.544 159.91H511.144L506.304 167.19L501.264 159.91H492.984L502.624 173.79V186.59ZM528.77 159.91H521.85V186.59H528.77V175.03L537.81 186.59H546.77L535.21 172.55L545.81 159.91H537.25L528.77 170.91V159.91ZM381.768 228.59L384.048 213.23L390.208 228.59H392.968L399.408 213.23L401.368 228.59H408.288L404.288 201.91H397.368L391.648 216.15L386.248 201.91H379.408L374.888 228.59H381.768ZM440.93 215.27C440.93 211.71 439.57 207.95 436.73 205.27C434.01 202.67 430.17 201.31 426.21 201.31C422.25 201.31 418.41 202.67 415.69 205.27C412.85 207.95 411.49 211.71 411.49 215.27C411.49 218.79 412.85 222.51 415.69 225.23C418.41 227.83 422.25 229.19 426.21 229.19C430.17 229.19 434.01 227.83 436.73 225.23C439.57 222.51 440.93 218.79 440.93 215.27ZM426.21 208.03C428.05 208.03 430.09 208.75 431.57 210.15C432.81 211.35 433.73 213.19 433.73 215.27C433.73 217.31 432.81 219.15 431.57 220.39C430.33 221.63 428.57 222.47 426.21 222.47C423.89 222.47 422.09 221.59 420.81 220.35C419.81 219.39 418.69 217.75 418.69 215.39C418.69 213.51 419.37 211.55 420.81 210.15C422.25 208.71 424.29 208.03 426.21 208.03ZM456.466 228.59C459.746 228.59 462.266 227.55 463.706 226.07C464.706 225.07 465.666 223.35 465.666 220.83C465.666 218.71 464.946 216.99 463.866 215.95C463.026 215.15 461.626 214.51 460.226 214.35C461.226 213.91 461.826 213.31 462.386 212.27C462.946 211.15 463.146 210.15 463.146 208.99C463.146 206.63 462.426 204.99 461.506 203.99C459.866 202.19 457.586 201.91 455.666 201.91H445.346V228.59H456.466ZM452.266 207.23H453.546C454.906 207.23 455.746 207.59 456.186 208.03C456.586 208.47 456.826 209.15 456.826 209.83C456.826 210.43 456.626 211.15 456.186 211.59C455.466 212.35 454.266 212.43 453.546 212.43H452.266V207.23ZM452.266 217.59H453.706C455.426 217.59 457.146 217.63 457.986 218.47C458.386 218.87 458.666 219.55 458.666 220.39C458.666 221.15 458.426 221.75 458.106 222.11C457.346 222.99 455.746 223.19 453.826 223.19H452.266V217.59ZM470.072 201.91V228.59H476.992V201.91H470.072ZM482.611 201.91V228.59H497.851V222.71H489.531V201.91H482.611ZM508.32 228.59V212.27L521.08 228.59H528V201.91H521.08V218.23L508.32 201.91H501.4V228.59H508.32ZM539.948 228.59H546.908V215.79L556.868 201.91H548.468L543.628 209.19L538.588 201.91H530.308L539.948 215.79V228.59Z" fill="#F39B9B"/>
<path d="M127.165 19.9173C127.165 19.9173 136.322 22.122 142.724 15.8444C149.487 9.21607 147.642 0.426014 147.642 0.426014C147.642 0.426014 137.156 -2.00772 131.27 4.76379C126.656 10.0679 127.165 19.9173 127.165 19.9173Z" fill="#005B26"/>
<path d="M57.056 54.9563C56.1393 54.5743 55.124 55.1148 54.8701 56.0877C53.8618 60.0299 53.3188 64.1666 53.3188 68.433C53.3188 72.6995 53.8618 76.8362 54.8701 80.7783C55.1169 81.7513 56.1393 82.2918 57.056 81.9098L85.5641 69.9609C86.8968 69.3988 86.8968 67.4673 85.5641 66.9052L57.056 54.9563Z" fill="#FFEC86"/>
<path d="M145.814 81.9098C146.742 82.2918 147.771 81.7513 148.028 80.7783C149.049 76.8362 149.599 72.6995 149.599 68.433C149.599 64.1666 149.049 60.0299 148.028 56.0877C147.778 55.1148 146.742 54.5743 145.814 54.9563L116.935 66.9052C115.585 67.4673 115.585 69.3988 116.935 69.9609L145.814 81.9098Z" fill="#FFEC86"/>
<path d="M114.506 24.0782C114.882 23.1496 114.35 22.121 113.392 21.8639C109.513 20.8425 105.442 20.2925 101.243 20.2925C97.0443 20.2925 92.9732 20.8425 89.0936 21.8639C88.1362 22.1139 87.6042 23.1496 87.9801 24.0782L99.7394 52.9566C100.293 54.3065 102.193 54.3065 102.747 52.9566L114.506 24.0782Z" fill="#FFEC86"/>
<path d="M87.9801 112.787C87.6042 113.716 88.1361 114.744 89.0936 115.002C92.9732 116.023 97.0442 116.573 101.243 116.573C105.442 116.573 109.513 116.023 113.392 115.002C114.35 114.752 114.882 113.716 114.506 112.787L102.747 83.9089C102.193 82.5589 100.293 82.5589 99.7394 83.9089L87.9801 112.787Z" fill="#FFEC86"/>
<path d="M142.891 44.2392C138.713 37.1219 132.77 31.1789 125.653 27.001C124.791 26.4957 123.688 26.8444 123.304 27.7626L111.304 56.4524C110.742 57.7976 112.094 59.1499 113.439 58.5876L142.129 46.5879C143.047 46.2035 143.396 45.0932 142.891 44.2392Z" fill="#FFEC86"/>
<path d="M59.5953 92.6264C63.7732 99.7437 69.7161 105.687 76.8335 109.865C77.6946 110.37 78.7978 110.021 79.1822 109.103L91.1819 80.4131C91.7442 79.0679 90.3919 77.7156 89.0467 78.2779L60.3569 90.2777C59.4387 90.662 59.09 91.7723 59.5953 92.6264Z" fill="#FFEC86"/>
<path d="M76.8335 27.001C69.7161 31.1789 63.7732 37.1219 59.5953 44.2392C59.09 45.1004 59.4387 46.2035 60.3569 46.5879L89.0467 58.5876C90.3919 59.1499 91.7442 57.7976 91.1819 56.4524L79.1822 27.7626C78.7978 26.8444 77.6875 26.4957 76.8335 27.001Z" fill="#FFEC86"/>
<path d="M142.886 92.6524C143.399 91.7771 143.05 90.6598 142.117 90.2684L113.44 78.2779C112.094 77.7157 110.742 79.0677 111.304 80.4127L123.308 109.098C123.692 110.016 124.796 110.371 125.65 109.866C127.885 108.557 130 107.077 131.986 105.433C132.641 104.892 133.595 104.92 134.193 105.518L137.347 108.671C137.988 109.311 139.028 109.311 139.675 108.671L141.754 106.593C142.395 105.952 142.395 104.913 141.754 104.266L138.593 101.106C137.995 100.509 137.967 99.5621 138.508 98.9074C140.131 96.9433 141.598 94.8512 142.893 92.6452L142.886 92.6524Z" fill="#FFEC86"/>
</svg>
