<svg width="103" height="293" viewBox="0 0 103 293" fill="none" xmlns="http://www.w3.org/2000/svg">
<g clip-path="url(#clip0_311_347)">
<path d="M97.2432 68.1424L96.8535 67.6743L97.967 66.7636L97.0505 65.6572L97.5216 65.27L98.8279 66.8445L97.2432 68.1424Z" fill="#90EFA5"/>
<path d="M94.5197 67.6062L94.0957 67.1679L95.1407 66.1806L94.1471 65.1423L94.5925 64.7253L96.0058 66.2019L94.5197 67.6062Z" fill="#90EFA5"/>
<path d="M91.616 67.5339L91.1963 67.0956L92.237 66.1083L91.2434 65.07L91.6888 64.6529L93.1021 66.1296L91.616 67.5339Z" fill="#90EFA5"/>
<path d="M88.7127 67.4658L88.293 67.0232L89.338 66.036L88.3444 64.9976L88.7855 64.5806L90.2031 66.0572L88.7127 67.4658Z" fill="#90EFA5"/>
<path d="M85.8084 67.3934L85.3887 66.9509L86.4337 65.9636L85.4401 64.9253L85.8812 64.5083L87.2988 65.9849L85.8084 67.3934Z" fill="#90EFA5"/>
<path d="M82.9093 67.3211L82.4854 66.8785L83.5303 65.8913L82.5367 64.8529L82.9821 64.4359L84.3955 65.9126L82.9093 67.3211Z" fill="#90EFA5"/>
<path d="M80.0911 67.3764L79.6414 66.9636L80.6264 65.9168L79.5771 64.9381L79.9926 64.4955L81.4915 65.887L80.0911 67.3764Z" fill="#90EFA5"/>
<path d="M77.3337 67.6062L76.8497 67.2317L77.732 66.0998L76.5928 65.2232L76.9697 64.7423L78.5928 65.9934L77.3337 67.6062Z" fill="#90EFA5"/>
<path d="M74.3139 67.7935L73.8642 67.3807L74.8449 66.3296L73.7871 65.3551L74.2025 64.9125L75.7058 66.2955L74.3139 67.7935Z" fill="#90EFA5"/>
<path d="M71.3162 67.7594L70.8965 67.3211L71.9415 66.3338L70.9479 65.2955L71.389 64.8742L72.8066 66.3551L71.3162 67.7594Z" fill="#90EFA5"/>
<path d="M68.4162 67.6871L67.9922 67.2488L69.0372 66.2615L68.0436 65.2232L68.489 64.8019L69.9023 66.2828L68.4162 67.6871Z" fill="#90EFA5"/>
<path d="M65.5129 67.6147L65.0889 67.1764L66.1339 66.1892L65.1403 65.1508L65.5857 64.7295L66.999 66.2104L65.5129 67.6147Z" fill="#90EFA5"/>
<path d="M62.6092 67.5424L62.1895 67.1041L63.2302 66.1168L62.2366 65.0785L62.682 64.6614L64.0953 66.1381L62.6092 67.5424Z" fill="#90EFA5"/>
<path d="M59.7571 67.5551L59.3202 67.1296L60.331 66.1083L59.2988 65.104L59.7271 64.67L61.1961 66.0998L59.7571 67.5551Z" fill="#90EFA5"/>
<path d="M56.8528 67.5849L56.4159 67.1594L57.4267 66.1338L56.3945 65.1338L56.8228 64.6997L58.2918 66.1296L56.8528 67.5849Z" fill="#90EFA5"/>
<path d="M53.9495 67.6105L53.5126 67.1849L54.5234 66.1636L53.4912 65.1593L53.9195 64.7253L55.3885 66.1551L53.9495 67.6105Z" fill="#90EFA5"/>
<path d="M51.0461 67.636L50.6093 67.2105L51.62 66.1892L50.5879 65.1849L51.0204 64.7508L52.4851 66.1806L51.0461 67.636Z" fill="#90EFA5"/>
<path d="M48.2536 67.853L47.7868 67.4573L48.7204 66.3679L47.624 65.4402L48.0223 64.9764L49.5855 66.2998L48.2536 67.853Z" fill="#90EFA5"/>
<path d="M45.3581 68.0828L44.8913 67.6871L45.8249 66.5977L44.7285 65.67L45.1268 65.2061L46.69 66.5296L45.3581 68.0828Z" fill="#90EFA5"/>
<path d="M42.6473 68.6105L42.142 68.2658L42.9685 67.087L41.7822 66.27L42.1334 65.7721L43.8165 66.9381L42.6473 68.6105Z" fill="#90EFA5"/>
<path d="M39.7866 69.1211L39.2855 68.7765L40.1078 67.5977L38.9258 66.7807L39.2727 66.2828L40.9601 67.4445L39.7866 69.1211Z" fill="#90EFA5"/>
<path d="M37.6492 70.1722L37.0625 70.0148L37.4436 68.6318L36.0518 68.253L36.2145 67.6701L38.1931 68.2062L37.6492 70.1722Z" fill="#90EFA5"/>
<path d="M35.1268 71.6021L34.54 71.4446L34.9212 70.0616L33.5293 69.6829L33.692 69.0956L35.6707 69.6361L35.1268 71.6021Z" fill="#90EFA5"/>
<path d="M34.6214 73.3936L34.0732 73.6575L33.448 72.3638L32.1503 72.9808L31.8848 72.4361L33.7392 71.5553L34.6214 73.3936Z" fill="#90EFA5"/>
<path d="M34.0131 75.6277L33.5934 76.0703L32.5398 75.0958L31.5591 76.1426L31.1094 75.7256L32.5098 74.2362L34.0131 75.6277Z" fill="#90EFA5"/>
<path d="M34.1117 78.5129L33.6963 78.9555L32.6427 77.9767L31.6577 79.0236L31.208 78.6108L32.6127 77.1171L34.1117 78.5129Z" fill="#90EFA5"/>
<path d="M34.4202 81.2066L34.0562 81.696L32.8956 80.8449L32.0433 82.0024L31.5508 81.6407L32.7671 79.9981L34.4202 81.2066Z" fill="#90EFA5"/>
<path d="M34.827 84.1216L34.4458 84.5939L33.3195 83.7003L32.4201 84.8195L31.9404 84.4407L33.2253 82.845L34.827 84.1216Z" fill="#90EFA5"/>
<path d="M35.1483 86.9898L34.7671 87.4621L33.6408 86.5685L32.7414 87.6876L32.2617 87.3089L33.5465 85.7131L35.1483 86.9898Z" fill="#90EFA5"/>
<path d="M35.4696 89.8579L35.0884 90.3303L33.9621 89.4366L33.0627 90.5558L32.583 90.1771L33.8678 88.5813L35.4696 89.8579Z" fill="#90EFA5"/>
<path d="M35.7178 92.7899L35.3152 93.2453L34.2274 92.3091L33.2809 93.39L32.8184 92.9942L34.1631 91.4495L35.7178 92.7899Z" fill="#90EFA5"/>
<path d="M35.9238 95.6666L35.5213 96.1262L34.4334 95.1857L33.487 96.2709L33.0244 95.8709L34.3735 94.3304L35.9238 95.6666Z" fill="#90EFA5"/>
<path d="M36.0219 98.6497L35.5893 99.0795L34.57 98.0667L33.5507 99.0795L33.1182 98.6497L34.57 97.2071L36.0219 98.6497Z" fill="#90EFA5"/>
<path d="M36.0258 101.535L35.5932 101.965L34.5739 100.952L33.5546 101.965L33.1221 101.539L34.5739 100.092L36.0258 101.535Z" fill="#90EFA5"/>
<path d="M35.9834 104.497L35.5294 104.901L34.5658 103.837L33.4951 104.795L33.084 104.343L34.6129 102.977L35.9834 104.497Z" fill="#90EFA5"/>
<path d="M35.8291 107.378L35.3709 107.786L34.4115 106.718L33.3365 107.675L32.9297 107.224L34.4543 105.858L35.8291 107.378Z" fill="#90EFA5"/>
<path d="M35.6709 110.259L35.2169 110.667L34.2533 109.599L33.1826 110.556L32.7715 110.105L34.3004 108.739L35.6709 110.259Z" fill="#90EFA5"/>
<path d="M35.4908 113.173L35.0283 113.569L34.0904 112.48L32.994 113.412L32.5957 112.948L34.1589 111.625L35.4908 113.173Z" fill="#90EFA5"/>
<path d="M35.2643 116.05L34.7975 116.446L33.8638 115.357L32.7674 116.284L32.3691 115.825L33.9323 114.501L35.2643 116.05Z" fill="#90EFA5"/>
<path d="M35.0367 118.927L34.5699 119.323L33.6363 118.233L32.5399 119.161L32.1416 118.701L33.7005 117.374L35.0367 118.927Z" fill="#90EFA5"/>
<path d="M34.8102 121.804L34.3434 122.199L33.4097 121.11L32.3133 122.038L31.915 121.578L33.474 120.25L34.8102 121.804Z" fill="#90EFA5"/>
<path d="M34.5826 124.68L34.1158 125.076L33.1779 123.987L32.0815 124.914L31.6875 124.455L33.2464 123.127L34.5826 124.68Z" fill="#90EFA5"/>
<path d="M34.4541 127.514L34.0044 127.923L33.0322 126.868L31.9658 127.833L31.5547 127.382L33.0708 126.008L34.4541 127.514Z" fill="#90EFA5"/>
<path d="M34.3256 130.395L33.8716 130.808L32.8994 129.748L31.8373 130.714L31.4219 130.268L32.938 128.889L34.3256 130.395Z" fill="#90EFA5"/>
<path d="M34.1934 133.28L33.7394 133.689L32.7672 132.629L31.7051 133.595L31.2939 133.149L32.81 131.774L34.1934 133.28Z" fill="#90EFA5"/>
<path d="M34.1758 136.017L33.7689 136.472L32.694 135.515L31.7303 136.578L31.2764 136.174L32.6511 134.655L34.1758 136.017Z" fill="#90EFA5"/>
<path d="M34.3301 138.898L33.9232 139.353L32.8525 138.396L31.8889 139.459L31.4307 139.055L32.8054 137.536L34.3301 138.898Z" fill="#90EFA5"/>
<path d="M34.4883 141.779L34.0771 142.234L33.0065 141.276L32.0428 142.34L31.5889 141.936L32.9593 140.417L34.4883 141.779Z" fill="#90EFA5"/>
<path d="M34.8182 144.557L34.437 145.034L33.3064 144.145L32.4113 145.268L31.9316 144.889L33.2079 143.289L34.8182 144.557Z" fill="#90EFA5"/>
<path d="M35.1522 147.426L34.771 147.898L33.6404 147.009L32.7453 148.132L32.2656 147.753L33.5419 146.157L35.1522 147.426Z" fill="#90EFA5"/>
<path d="M35.2852 150.4L34.874 150.851L33.8033 149.889L32.8397 150.953L32.3857 150.545L33.7605 149.03L35.2852 150.4Z" fill="#90EFA5"/>
<path d="M35.4355 153.281L35.0244 153.732L33.9537 152.77L32.9901 153.834L32.5361 153.426L33.9109 151.915L35.4355 153.281Z" fill="#90EFA5"/>
<path d="M35.2809 156.319L34.8269 156.724L33.8676 155.651L32.7883 156.6L32.3857 156.149L33.919 154.792L35.2809 156.319Z" fill="#90EFA5"/>
<path d="M35.1094 159.2L34.6511 159.605L33.6961 158.532L32.6168 159.481L32.21 159.026L33.7475 157.673L35.1094 159.2Z" fill="#90EFA5"/>
<path d="M34.9385 162.081L34.4802 162.481L33.5209 161.413L32.4416 162.362L32.0391 161.907L33.5723 160.554L34.9385 162.081Z" fill="#90EFA5"/>
<path d="M34.6215 165.047L34.1333 165.418L33.2553 164.281L32.1119 165.158L31.7393 164.677L33.3667 163.43L34.6215 165.047Z" fill="#90EFA5"/>
<path d="M34.2442 167.907L33.7603 168.277L32.8823 167.145L31.7388 168.018L31.3662 167.537L32.9937 166.29L34.2442 167.907Z" fill="#90EFA5"/>
<path d="M33.7781 170.843L33.2727 171.184L32.4633 169.996L31.2727 170.805L30.9258 170.303L32.626 169.154L33.7781 170.843Z" fill="#90EFA5"/>
<path d="M33.2381 173.677L32.7327 174.018L31.919 172.835L30.7284 173.639L30.3857 173.137L32.0817 171.988L33.2381 173.677Z" fill="#90EFA5"/>
<path d="M32.6389 176.537L32.125 176.865L31.3455 175.66L30.1335 176.435L29.8037 175.924L31.5297 174.822L32.6389 176.537Z" fill="#90EFA5"/>
<path d="M32.0217 179.358L31.5078 179.686L30.7283 178.482L29.5163 179.256L29.1865 178.741L30.9125 177.639L32.0217 179.358Z" fill="#90EFA5"/>
<path d="M31.431 182.158L30.9214 182.495L30.1248 181.303L28.9213 182.095L28.583 181.588L30.2961 180.461L31.431 182.158Z" fill="#90EFA5"/>
<path d="M30.8525 184.988L30.3429 185.325L29.5463 184.129L28.3471 184.92L28.0088 184.414L29.7176 183.286L30.8525 184.988Z" fill="#90EFA5"/>
<path d="M30.2787 187.814L29.769 188.15L28.9725 186.959L27.769 187.75L27.4307 187.244L29.1438 186.116L30.2787 187.814Z" fill="#90EFA5"/>
<path d="M29.7564 190.614L29.2553 190.963L28.4244 189.793L27.2467 190.614L26.8955 190.116L28.5743 188.946L29.7564 190.614Z" fill="#90EFA5"/>
<path d="M29.2554 193.457L28.7543 193.806L27.9235 192.631L26.7457 193.457L26.3945 192.959L28.0734 191.784L29.2554 193.457Z" fill="#90EFA5"/>
<path d="M28.7501 196.299L28.2533 196.648L27.4225 195.474L26.2447 196.299L25.8936 195.801L27.5724 194.627L28.7501 196.299Z" fill="#90EFA5"/>
<path d="M28.2492 199.142L27.7524 199.491L26.9215 198.316L25.7438 199.138L25.3926 198.644L27.0714 197.47L28.2492 199.142Z" fill="#90EFA5"/>
<path d="M27.7776 201.955L27.2851 202.312L26.4286 201.159L25.268 202.01L24.9082 201.521L26.5613 200.312L27.7776 201.955Z" fill="#90EFA5"/>
<path d="M27.3411 204.806L26.8486 205.168L25.9921 204.014L24.8314 204.861L24.4717 204.372L26.1248 203.163L27.3411 204.806Z" fill="#90EFA5"/>
<path d="M26.9036 207.657L26.4111 208.019L25.5588 206.866L24.3982 207.712L24.0342 207.223L25.6873 206.014L26.9036 207.657Z" fill="#90EFA5"/>
<path d="M26.5186 210.495L26.0304 210.861L25.1567 209.721L24.0089 210.589L23.6406 210.108L25.2766 208.87L26.5186 210.495Z" fill="#90EFA5"/>
<path d="M26.129 213.355L25.6407 213.721L24.7671 212.581L23.6193 213.449L23.251 212.964L24.8827 211.73L26.129 213.355Z" fill="#90EFA5"/>
<path d="M25.7344 216.215L25.2505 216.581L24.3768 215.44L23.229 216.308L22.8564 215.823L24.4925 214.589L25.7344 216.215Z" fill="#90EFA5"/>
<path d="M25.3663 219.066L24.8823 219.436L24.0001 218.3L22.8609 219.177L22.4883 218.696L24.1114 217.449L25.3663 219.066Z" fill="#90EFA5"/>
<path d="M24.9936 221.926L24.5097 222.296L23.6274 221.164L22.4839 222.036L22.1113 221.555L23.7388 220.309L24.9936 221.926Z" fill="#90EFA5"/>
<path d="M24.6173 224.79L24.1333 225.16L23.2553 224.024L22.1119 224.9L21.7393 224.415L23.3667 223.172L24.6173 224.79Z" fill="#90EFA5"/>
<path d="M24.2485 227.641L23.7688 228.015L22.8823 226.887L21.7431 227.764L21.3662 227.287L22.9894 226.032L24.2485 227.641Z" fill="#90EFA5"/>
<path d="M23.9106 230.5L23.4309 230.875L22.5401 229.751L21.4052 230.636L21.0283 230.16L22.6386 228.896L23.9106 230.5Z" fill="#90EFA5"/>
<path d="M23.5678 233.364L23.0882 233.739L22.1974 232.615L21.0624 233.5L20.6855 233.024L22.2959 231.76L23.5678 233.364Z" fill="#90EFA5"/>
<path d="M23.2251 236.228L22.7454 236.607L21.8503 235.479L20.7197 236.369L20.3428 235.888L21.9531 234.628L23.2251 236.228Z" fill="#90EFA5"/>
<path d="M22.8823 239.096L22.4026 239.471L21.5075 238.347L20.3769 239.232L20 238.756L21.6103 237.492L22.8823 239.096Z" fill="#90EFA5"/>
<path d="M22.5399 241.96L22.0559 242.335L21.1651 241.211L20.0345 242.096L19.6533 241.62L21.2679 240.356L22.5399 241.96Z" fill="#90EFA5"/>
<path d="M22.3731 244.765L21.9105 245.165L20.964 244.088L19.8762 245.033L19.4736 244.573L21.0197 243.233L22.3731 244.765Z" fill="#90EFA5"/>
<path d="M22.1797 247.645L21.7172 248.046L20.7707 246.969L19.6829 247.909L19.2803 247.454L20.8263 246.109L22.1797 247.645Z" fill="#90EFA5"/>
<path d="M21.9873 250.522L21.5248 250.922L20.5783 249.846L19.4905 250.79L19.0879 250.331L20.634 248.99L21.9873 250.522Z" fill="#90EFA5"/>
<path d="M21.9274 253.203L21.5291 253.663L20.437 252.726L19.4948 253.807L19.0322 253.412L20.3727 251.867L21.9274 253.203Z" fill="#90EFA5"/>
<path d="M22.1373 256.08L21.739 256.539L20.6469 255.603L19.7047 256.684L19.2422 256.288L20.587 254.744L22.1373 256.08Z" fill="#90EFA5"/>
<path d="M22.3512 258.956L21.9486 259.416L20.8608 258.48L19.9186 259.565L19.4561 259.165L20.7966 257.625L22.3512 258.956Z" fill="#90EFA5"/>
<path d="M22.9943 261.271L22.7587 261.829L21.4268 261.276L20.87 262.595L20.3047 262.361L21.1013 260.48L22.9943 261.271Z" fill="#90EFA5"/>
<path d="M24.09 263.94L23.8544 264.501L22.5225 263.944L21.9657 265.267L21.4004 265.029L22.197 263.148L24.09 263.94Z" fill="#90EFA5"/>
<path d="M25.3751 266.157L25.2638 266.757L23.8462 266.497L23.5849 267.906L22.9854 267.795L23.358 265.786L25.3751 266.157Z" fill="#90EFA5"/>
<path d="M26.9765 268.825L26.7709 269.395L25.4133 268.918L24.9336 270.267L24.3555 270.067L25.0407 268.144L26.9765 268.825Z" fill="#90EFA5"/>
<path d="M28.2275 271.429L28.0219 271.999L26.6643 271.523L26.1803 272.872L25.6064 272.672L26.2917 270.748L28.2275 271.429Z" fill="#90EFA5"/>
<path d="M29.4176 273.727L29.3319 274.331L27.9057 274.131L27.7045 275.548L27.1006 275.463L27.3875 273.442L29.4176 273.727Z" fill="#90EFA5"/>
<path d="M31.469 275.361L31.5076 275.97L30.0686 276.055L30.1542 277.485L29.5418 277.519L29.4219 275.485L31.469 275.361Z" fill="#90EFA5"/>
<path d="M33.701 276.544L33.8894 277.123L32.5189 277.561L32.9643 278.927L32.3819 279.114L31.748 277.174L33.701 276.544Z" fill="#90EFA5"/>
<path d="M36.3735 277.97L36.5105 278.561L35.1015 278.88L35.4227 280.276L34.8231 280.412L34.3691 278.421L36.3735 277.97Z" fill="#90EFA5"/>
<path d="M38.7589 279.834L38.8403 280.438L37.4141 280.625L37.6026 282.046L36.9944 282.127L36.7246 280.106L38.7589 279.834Z" fill="#90EFA5"/>
<path d="M95.2698 282.34H9.5807C6.74235 282.34 4.44141 284.626 4.44141 287.447V287.898C4.44141 290.718 6.74235 293.004 9.5807 293.004H95.2698C98.1082 293.004 100.409 290.718 100.409 287.898V287.447C100.409 284.626 98.1082 282.34 95.2698 282.34Z" fill="#EA9494"/>
<path d="M27.2295 279.536H11.5975C10.9423 279.536 10.4111 280.063 10.4111 280.715C10.4111 281.366 10.9423 281.893 11.5975 281.893H27.2295C27.8847 281.893 28.4158 281.366 28.4158 280.715C28.4158 280.063 27.8847 279.536 27.2295 279.536Z" fill="#EA9494"/>
<path d="M49.2217 279.536H33.5896C32.9345 279.536 32.4033 280.063 32.4033 280.715C32.4033 281.366 32.9345 281.893 33.5896 281.893H49.2217C49.8768 281.893 50.408 281.366 50.408 280.715C50.408 280.063 49.8768 279.536 49.2217 279.536Z" fill="#EA9494"/>
<path d="M15.3574 278.434L15.8328 278.051L16.7365 279.166L17.8585 278.263L18.244 278.736L16.6465 280.017L15.3574 278.434Z" fill="#90EFA5"/>
<path d="M15.6621 275.561L16.1375 275.182L17.0454 276.293L18.1675 275.395L18.5487 275.868L16.9555 277.148L15.6621 275.561Z" fill="#90EFA5"/>
<path d="M15.9707 272.693L16.4461 272.31L17.3497 273.425L18.4718 272.527L18.8573 272.999L17.2598 274.28L15.9707 272.693Z" fill="#90EFA5"/>
<path d="M16.2744 269.825L16.7498 269.442L17.6577 270.557L18.7798 269.655L19.1653 270.127L17.5678 271.412L16.2744 269.825Z" fill="#90EFA5"/>
<path d="M16.583 266.957L17.0584 266.574L17.9663 267.689L19.0841 266.786L19.4696 267.259L17.8721 268.544L16.583 266.957Z" fill="#90EFA5"/>
<path d="M16.8271 264.199L17.2726 263.778L18.2619 264.82L19.3069 263.833L19.7308 264.272L18.2405 265.676L16.8271 264.199Z" fill="#90EFA5"/>
<path d="M16.6338 261.433L17.0407 260.982L18.1113 261.935L19.075 260.871L19.5332 261.276L18.1584 262.795L16.6338 261.433Z" fill="#90EFA5"/>
<path d="M16.4756 258.552L16.8867 258.097L17.9574 259.054L18.921 257.99L19.375 258.395L18.0045 259.914L16.4756 258.552Z" fill="#90EFA5"/>
<path d="M16.3213 255.671L16.7324 255.216L17.8031 256.173L18.7667 255.11L19.2207 255.514L17.8502 257.033L16.3213 255.671Z" fill="#90EFA5"/>
<path d="M16.0469 252.982L16.3981 252.48L17.5801 253.301L18.4024 252.126L18.9035 252.475L17.73 254.148L16.0469 252.982Z" fill="#90EFA5"/>
<path d="M15.5381 250.139L15.8893 249.641L17.0713 250.463L17.8979 249.288L18.399 249.633L17.2212 251.309L15.5381 250.139Z" fill="#90EFA5"/>
<path d="M15.0322 247.297L15.3834 246.799L16.5654 247.62L17.3877 246.445L17.8888 246.794L16.7153 248.467L15.0322 247.297Z" fill="#90EFA5"/>
<path d="M14.4629 244.509L14.8012 244.003L16.0047 244.79L16.797 243.594L17.3066 243.926L16.1803 245.633L14.4629 244.509Z" fill="#90EFA5"/>
<path d="M13.876 241.684L14.2143 241.177L15.4178 241.964L16.2101 240.769L16.7197 241.101L15.5934 242.807L13.876 241.684Z" fill="#90EFA5"/>
<path d="M13.5117 238.654L13.9057 238.19L15.0064 239.113L15.9358 238.015L16.4026 238.407L15.0792 239.969L13.5117 238.654Z" fill="#90EFA5"/>
<path d="M13.2637 235.781L13.6577 235.313L14.7583 236.237L15.6877 235.143L16.1545 235.534L14.8312 237.096L13.2637 235.781Z" fill="#90EFA5"/>
<path d="M13.0156 232.905L13.4096 232.441L14.5146 233.364L15.4439 232.266L15.9108 232.658L14.5874 234.22L13.0156 232.905Z" fill="#90EFA5"/>
<path d="M13.2383 229.819L13.6923 229.415L14.6559 230.483L15.7308 229.53L16.1377 229.981L14.6045 231.343L13.2383 229.819Z" fill="#90EFA5"/>
<path d="M13.4004 226.938L13.8544 226.534L14.818 227.602L15.8929 226.649L16.2998 227.1L14.7666 228.462L13.4004 226.938Z" fill="#90EFA5"/>
<path d="M13.9746 223.921L14.48 223.577L15.2937 224.76L16.4843 223.951L16.8312 224.453L15.1352 225.602L13.9746 223.921Z" fill="#90EFA5"/>
<path d="M14.501 221.104L14.9978 220.755L15.8286 221.926L17.0064 221.1L17.3619 221.594L15.683 222.772L14.501 221.104Z" fill="#90EFA5"/>
<path d="M14.9385 218.274L15.4353 217.917L16.2833 219.074L17.4482 218.232L17.8079 218.721L16.1462 219.921L14.9385 218.274Z" fill="#90EFA5"/>
<path d="M15.3916 215.423L15.8841 215.066L16.7321 216.223L17.897 215.381L18.2568 215.87L16.5993 217.074L15.3916 215.423Z" fill="#90EFA5"/>
<path d="M15.7217 212.696L16.1799 212.296L17.135 213.368L18.2142 212.419L18.6211 212.879L17.0793 214.228L15.7217 212.696Z" fill="#90EFA5"/>
<path d="M15.9062 209.815L16.3645 209.415L17.3196 210.487L18.3988 209.542L18.8057 209.998L17.2639 211.347L15.9062 209.815Z" fill="#90EFA5"/>
<path d="M16.0518 207.006L16.4929 206.58L17.495 207.61L18.5315 206.61L18.9555 207.049L17.4822 208.47L16.0518 207.006Z" fill="#90EFA5"/>
<path d="M16.0986 204.121L16.5355 203.695L17.5419 204.725L18.5741 203.725L19.0023 204.163L17.5291 205.585L16.0986 204.121Z" fill="#90EFA5"/>
<path d="M16.1416 201.236L16.5784 200.81L17.5849 201.84L18.617 200.84L19.0453 201.278L17.572 202.699L16.1416 201.236Z" fill="#90EFA5"/>
<path d="M16.1846 198.35L16.6257 197.925L17.6279 198.955L18.6643 197.959L19.0883 198.393L17.615 199.814L16.1846 198.35Z" fill="#90EFA5"/>
<path d="M16.2012 195.482L16.6337 195.052L17.653 196.07L18.6723 195.057L19.1049 195.491L17.6487 196.929L16.2012 195.482Z" fill="#90EFA5"/>
<path d="M16.2061 192.597L16.6386 192.167L17.6579 193.184L18.6772 192.172L19.1098 192.606L17.6579 194.044L16.2061 192.597Z" fill="#90EFA5"/>
<path d="M16.2148 189.712L16.6474 189.282L17.6624 190.299L18.686 189.286L19.1185 189.72L17.6624 191.159L16.2148 189.712Z" fill="#90EFA5"/>
<path d="M16.2188 186.827L16.6513 186.397L17.6706 187.414L18.6899 186.401L19.1225 186.835L17.6663 188.274L16.2188 186.827Z" fill="#90EFA5"/>
<path d="M16.2227 183.942L16.6552 183.512L17.6745 184.529L18.6981 183.516L19.1264 183.95L17.6745 185.388L16.2227 183.942Z" fill="#90EFA5"/>
<path d="M16.2227 181.061L16.6552 180.631L17.6788 181.644L18.6938 180.631L19.1264 181.056L17.6788 182.503L16.2227 181.061Z" fill="#90EFA5"/>
<path d="M16.2188 178.175L16.6513 177.746L17.6706 178.758L18.6899 177.746L19.1225 178.171L17.6749 179.618L16.2188 178.175Z" fill="#90EFA5"/>
<path d="M16.2148 175.29L16.6474 174.86L17.6667 175.873L18.686 174.86L19.1185 175.286L17.671 176.733L16.2148 175.29Z" fill="#90EFA5"/>
<path d="M16.21 172.405L16.6425 171.975L17.6618 172.988L18.6811 171.975L19.1137 172.401L17.6618 173.848L16.21 172.405Z" fill="#90EFA5"/>
<path d="M16.1885 169.533L16.6168 169.099L17.6446 170.103L18.6553 169.081L19.0922 169.507L17.6532 170.962L16.1885 169.533Z" fill="#90EFA5"/>
<path d="M16.1582 166.647L16.5865 166.213L17.6186 167.218L18.6251 166.196L19.0619 166.622L17.6229 168.077L16.1582 166.647Z" fill="#90EFA5"/>
<path d="M16.1074 163.783L16.5314 163.345L17.5764 164.332L18.57 163.294L19.0111 163.715L17.5978 165.192L16.1074 163.783Z" fill="#90EFA5"/>
<path d="M16.0215 160.937L16.4283 160.49L17.499 161.447L18.4669 160.388L18.9209 160.792L17.5419 162.307L16.0215 160.937Z" fill="#90EFA5"/>
<path d="M15.833 158.107L16.227 157.643L17.332 158.571L18.2613 157.473L18.7281 157.868L17.4005 159.426L15.833 158.107Z" fill="#90EFA5"/>
<path d="M15.5938 155.234L15.9878 154.77L17.0884 155.694L18.0178 154.6L18.4846 154.992L17.1612 156.549L15.5938 155.234Z" fill="#90EFA5"/>
<path d="M15.3496 152.358L15.7436 151.894L16.8443 152.817L17.7779 151.724L18.2447 152.115L16.9171 153.677L15.3496 152.358Z" fill="#90EFA5"/>
<path d="M14.9854 149.575L15.3537 149.089L16.5057 149.953L17.3751 148.813L17.8634 149.179L16.6256 150.804L14.9854 149.575Z" fill="#90EFA5"/>
<path d="M14.5869 146.723L14.9552 146.234L16.1073 147.098L16.9724 145.949L17.4606 146.315L16.2272 147.945L14.5869 146.723Z" fill="#90EFA5"/>
<path d="M14.167 143.872L14.531 143.387L15.6874 144.242L16.5482 143.094L17.0407 143.455L15.8116 145.094L14.167 143.872Z" fill="#90EFA5"/>
<path d="M13.8848 140.906L14.2788 140.442L15.3752 141.374L16.3131 140.285L16.7799 140.676L15.4437 142.23L13.8848 140.906Z" fill="#90EFA5"/>
<path d="M13.6533 138.03L14.0516 137.57L15.148 138.498L16.0816 137.408L16.5485 137.804L15.2165 139.353L13.6533 138.03Z" fill="#90EFA5"/>
<path d="M13.6621 135.012L14.0989 134.587L15.1054 135.617L16.1375 134.617L16.5658 135.051L15.0925 136.476L13.6621 135.012Z" fill="#90EFA5"/>
<path d="M13.7002 132.127L14.1413 131.706L15.1435 132.732L16.1799 131.731L16.6039 132.166L15.1349 133.591L13.7002 132.127Z" fill="#90EFA5"/>
<path d="M13.7432 129.242L14.18 128.821L15.1864 129.846L16.2186 128.846L16.6469 129.28L15.1736 130.706L13.7432 129.242Z" fill="#90EFA5"/>
<path d="M13.8291 126.267L14.2916 125.872L15.2338 126.961L16.3259 126.029L16.7242 126.489L15.1653 127.816L13.8291 126.267Z" fill="#90EFA5"/>
<path d="M14.2783 123.327L14.7666 122.961L15.6317 124.106L16.7837 123.242L17.152 123.727L15.5118 124.957L14.2783 123.327Z" fill="#90EFA5"/>
<path d="M14.6807 120.467L15.1689 120.101L16.0383 121.246L17.1904 120.386L17.5587 120.872L15.9184 122.097L14.6807 120.467Z" fill="#90EFA5"/>
<path d="M15.084 117.612L15.5722 117.246L16.4416 118.391L17.5894 117.527L17.962 118.012L16.3217 119.242L15.084 117.612Z" fill="#90EFA5"/>
<path d="M15.4824 114.757L15.9707 114.391L16.8401 115.531L17.9921 114.667L18.3604 115.152L16.7201 116.382L15.4824 114.757Z" fill="#90EFA5"/>
<path d="M15.8848 111.897L16.373 111.531L17.2424 112.676L18.3902 111.812L18.7585 112.297L17.1225 113.527L15.8848 111.897Z" fill="#90EFA5"/>
<path d="M15.8936 109.203L16.3304 108.778L17.3411 109.795L18.369 108.786L18.7973 109.22L17.3368 110.654L15.8936 109.203Z" fill="#90EFA5"/>
<path d="M15.9102 106.318L16.347 105.892L17.3577 106.909L18.3856 105.901L18.8139 106.335L17.3534 107.769L15.9102 106.318Z" fill="#90EFA5"/>
<path d="M15.9277 103.433L16.3646 103.007L17.3753 104.024L18.4032 103.02L18.8314 103.45L17.371 104.884L15.9277 103.433Z" fill="#90EFA5"/>
<path d="M15.8506 100.68L16.2446 100.216L17.3453 101.143L18.2789 100.05L18.7457 100.441L17.4181 101.999L15.8506 100.68Z" fill="#90EFA5"/>
<path d="M15.6104 97.8071L16.0044 97.3432L17.105 98.2667L18.0344 97.173L18.5012 97.5645L17.1778 99.122L15.6104 97.8071Z" fill="#90EFA5"/>
<path d="M15.3662 94.9304L15.7602 94.4666L16.8609 95.39L17.7945 94.2964L18.2613 94.6879L16.9337 96.2496L15.3662 94.9304Z" fill="#90EFA5"/>
<path d="M15.127 92.0537L15.521 91.5899L16.6216 92.5176L17.551 91.4239L18.0178 91.8154L16.6944 93.3729L15.127 92.0537Z" fill="#90EFA5"/>
<path d="M14.8828 89.1813L15.2811 88.7175L16.3818 89.6409L17.3111 88.5473L17.7779 88.9388L16.4503 90.4962L14.8828 89.1813Z" fill="#90EFA5"/>
<path d="M14.501 86.394L14.8693 85.9131L16.0171 86.777L16.8907 85.6365L17.3747 86.0068L16.1327 87.6323L14.501 86.394Z" fill="#90EFA5"/>
<path d="M14.1074 83.5343L14.48 83.0535L15.6278 83.9216L16.4972 82.7811L16.9854 83.1471L15.7434 84.7727L14.1074 83.5343Z" fill="#90EFA5"/>
<path d="M13.6914 80.747L14.0383 80.2449L15.2246 81.0619L16.0426 79.8874L16.548 80.2321L15.3788 81.9088L13.6914 80.747Z" fill="#90EFA5"/>
<path d="M13.1475 77.9555L13.4815 77.4491L14.6892 78.2278L15.473 77.0235L15.9869 77.3554L14.8691 79.0661L13.1475 77.9555Z" fill="#90EFA5"/>
<path d="M12.5439 75.1341L12.8737 74.6277L14.0857 75.4064L14.8695 74.2022L15.3834 74.5341L14.2656 76.2448L12.5439 75.1341Z" fill="#90EFA5"/>
<path d="M11.9355 72.3127L12.2696 71.8021L13.4773 72.5851L14.2654 71.3808L14.775 71.7127L13.6615 73.4234L11.9355 72.3127Z" fill="#90EFA5"/>
<path d="M11.332 69.4914L11.6661 68.9807L12.8738 69.7595L13.6576 68.5594L14.1715 68.8914L13.0537 70.6021L11.332 69.4914Z" fill="#90EFA5"/>
<path d="M11.5938 66.2104L12.0563 65.8104L13.0071 66.8871L14.0906 65.9423L14.4932 66.3977L12.9514 67.7424L11.5938 66.2104Z" fill="#90EFA5"/>
<path d="M11.7812 63.3338L12.2395 62.9295L13.1946 64.0061L14.2738 63.0614L14.6807 63.5167L13.1389 64.8657L11.7812 63.3338Z" fill="#90EFA5"/>
<path d="M12.4453 60.0826L13.0106 59.8485L13.5631 61.172L14.895 60.6188L15.1306 61.1805L13.2333 61.9635L12.4453 60.0826Z" fill="#90EFA5"/>
<path d="M13.9443 57.3293L14.5439 57.1974L14.8523 58.5974L16.2613 58.2868L16.3941 58.8826L14.3897 59.3209L13.9443 57.3293Z" fill="#90EFA5"/>
<path d="M15.5078 54.8995L16.1031 54.7675L16.4158 56.1633L17.8248 55.8569L17.9533 56.4484L15.9489 56.891L15.5078 54.8995Z" fill="#90EFA5"/>
<path d="M18.3083 52.8824L18.9122 52.9803L18.6809 54.3931L20.1028 54.6229L20.0043 55.2229L17.9785 54.8952L18.3083 52.8824Z" fill="#90EFA5"/>
<path d="M21.8501 51.6994L22.2441 52.1632L21.1392 53.0866L22.0685 54.1846L21.6017 54.5761L20.2783 53.0143L21.8501 51.6994Z" fill="#90EFA5"/>
<path d="M24.7413 51.9462L25.1353 52.41L24.0347 53.3335L24.964 54.4271L24.4972 54.8186L23.1738 53.2611L24.7413 51.9462Z" fill="#90EFA5"/>
<path d="M27.8763 53.7718L27.9705 54.3718L26.5444 54.5888L26.7671 56.0059L26.1632 56.0995L25.8506 54.0824L27.8763 53.7718Z" fill="#90EFA5"/>
<path d="M30.2191 55.474L30.3133 56.074L28.8914 56.2953L29.1099 57.7081L28.506 57.8017L28.1934 55.7889L30.2191 55.474Z" fill="#90EFA5"/>
<path d="M32.5662 57.1676L32.6604 57.7676L31.2385 57.9932L31.4612 59.406L30.8573 59.5039L30.5361 57.4868L32.5662 57.1676Z" fill="#90EFA5"/>
<path d="M34.9125 58.8655L35.011 59.4656L33.5848 59.6911L33.8118 61.1039L33.2036 61.1975L32.8867 59.1847L34.9125 58.8655Z" fill="#90EFA5"/>
<path d="M37.2936 59.406L37.5849 59.9379L36.3172 60.6188L37.0024 61.8784L36.4628 62.1678L35.4863 60.372L37.2936 59.406Z" fill="#90EFA5"/>
<path d="M40.0778 60.2315L40.3648 60.7635L39.0971 61.4443L39.7823 62.704L39.247 62.9933L38.2705 61.1975L40.0778 60.2315Z" fill="#90EFA5"/>
<path d="M42.6008 60.5294L43.012 60.9847L41.937 61.9422L42.9006 63.0061L42.4466 63.4103L41.0762 61.8954L42.6008 60.5294Z" fill="#90EFA5"/>
<path d="M45.5002 60.6826L45.9114 61.1379L44.8364 62.0954L45.8 63.1593L45.3461 63.5635L43.9756 62.0486L45.5002 60.6826Z" fill="#90EFA5"/>
<path d="M48.3997 60.8401L48.8108 61.2911L47.7358 62.2486L48.6994 63.3125L48.2455 63.721L46.875 62.2018L48.3997 60.8401Z" fill="#90EFA5"/>
<path d="M51.2691 60.9167L51.6888 61.3592L50.6395 62.3422L51.6288 63.3848L51.1834 63.8019L49.7744 62.3167L51.2691 60.9167Z" fill="#90EFA5"/>
<path d="M54.1681 60.9975L54.5878 61.4401L53.5428 62.4231L54.5322 63.4657L54.0868 63.8827L52.6777 62.4018L54.1681 60.9975Z" fill="#90EFA5"/>
<path d="M57.0672 61.0699L57.4869 61.5082L56.4462 62.4954L57.4398 63.5338L56.9986 63.9508L55.5811 62.4784L57.0672 61.0699Z" fill="#90EFA5"/>
<path d="M59.9666 61.1337L60.3906 61.5763L59.3456 62.5635L60.3435 63.6019L59.9023 64.0189L58.4805 62.5422L59.9666 61.1337Z" fill="#90EFA5"/>
<path d="M62.8923 61.2358L63.3077 61.6826L62.2499 62.6529L63.2306 63.704L62.7809 64.1168L61.3848 62.6188L62.8923 61.2358Z" fill="#90EFA5"/>
<path d="M65.7956 61.3465L66.211 61.7933L65.1532 62.7678L66.1297 63.8189L65.68 64.2317L64.2881 62.7337L65.7956 61.3465Z" fill="#90EFA5"/>
<path d="M68.695 61.4614L69.1104 61.9082L68.0526 62.8784L69.0334 63.9295L68.5837 64.3423L67.1875 62.8444L68.695 61.4614Z" fill="#90EFA5"/>
<path d="M71.624 61.6103L72.0309 62.0656L70.9516 63.0188L71.911 64.087L71.457 64.4912L70.0908 62.9678L71.624 61.6103Z" fill="#90EFA5"/>
<path d="M74.5196 61.7805L74.9264 62.2316L73.8514 63.1848L74.8108 64.2529L74.3525 64.6572L72.9863 63.1338L74.5196 61.7805Z" fill="#90EFA5"/>
<path d="M77.419 61.9465L77.8258 62.3976L76.7509 63.3508L77.7102 64.4189L77.2519 64.8232L75.8857 63.2997L77.419 61.9465Z" fill="#90EFA5"/>
<path d="M80.3184 62.1124L80.7252 62.5635L79.6503 63.5167L80.6096 64.5849L80.1513 64.9891L78.7852 63.4699L80.3184 62.1124Z" fill="#90EFA5"/>
<path d="M83.2221 62.2784L83.6289 62.7337L82.5497 63.6827L83.5047 64.7593L83.0465 65.1593L81.6846 63.6316L83.2221 62.2784Z" fill="#90EFA5"/>
<path d="M86.1215 62.4571L86.5283 62.9125L85.4448 63.8614L86.3999 64.9338L85.9416 65.3381L84.584 63.8104L86.1215 62.4571Z" fill="#90EFA5"/>
<path d="M88.9738 62.555L89.3935 62.9976L88.3485 63.9848L89.3378 65.0232L88.8967 65.4402L87.4834 63.9593L88.9738 62.555Z" fill="#90EFA5"/>
<path d="M91.8814 62.6359L92.3011 63.0784L91.2518 64.0614L92.2369 65.104L91.7915 65.5211L90.3867 64.0359L91.8814 62.6359Z" fill="#90EFA5"/>
<path d="M94.7861 62.7252L95.2015 63.1678L94.1522 64.1508L95.1415 65.1934L94.6961 65.6104L93.2871 64.1253L94.7861 62.7252Z" fill="#90EFA5"/>
<path d="M97.6851 62.8146L98.1048 63.2572L97.0555 64.2359L98.0449 65.2785L97.5994 65.6955L96.1904 64.2104L97.6851 62.8146Z" fill="#90EFA5"/>
<path d="M102.307 66.5636C103.326 53.0739 88.6746 61.4699 78.5416 61.5975C55.9501 54.5122 44.7293 64.7636 28.2022 50.9759C25.7782 49.0695 28.8703 46.2141 27.9838 43.7204C28.4121 40.9161 39.7185 48.0014 38.3009 40.8991C37.3373 38.3203 40.1896 36.6649 39.0975 34.367C38.5793 33.3329 38.1382 31.9839 40.3095 31.9499C41.543 31.9286 41.5901 30.9754 41.4145 30.0179C35.7356 23.1794 41.6158 21.073 37.9369 14.0004C37.7356 12.5833 36.3694 11.4046 35.8212 10.1663C36.772 2.21283 25.367 -0.0595764 19.1314 0.812789C8.55726 1.65962 2.07747 11.6344 4.63427 21.3708C6.08612 30.2945 16.3005 37.15 9.64936 46.5673C-15.2377 70.9765 20.4933 100.871 9.92774 128.136C-2.23526 143.549 13.401 153.336 10.1504 168.047C5.28096 182.831 14.1548 197.81 8.87418 212.453C0.325825 233.658 16.4761 254.812 10.553 276.123C10.2147 280.089 16.369 279.472 18.9129 279.404C24.4805 277.514 37.2474 280.042 44.3824 279.544C45.9756 279.434 46.6223 277.459 45.3717 276.489C37.7313 270.548 23.2813 270.425 23.9794 253.637C25.4313 235.879 30.2279 217.738 30.8618 200.768C33.6327 184.571 40.832 168.073 39.1874 150.66C39.0889 145.647 37.9797 140.268 40.1125 135.561C42.9477 123.544 38.348 111.114 41.4316 99.0454C43.3845 93.0453 39.3845 84.2237 40.1853 78.2661C40.8492 76.9554 40.999 73.3298 40.8534 72.0915C40.6093 69.985 44.8749 70.4403 47.0249 70.151C54.9779 69.0786 53.6331 68.3977 61.3549 70.185C76.0405 73.5894 82.0149 61.4656 92.1778 70.1127C95.2015 71.2404 98.996 72.4574 99.4671 68.6403C99.6384 67.2232 97.5356 68.3977 97.7625 66.0062C98.5977 57.2229 100.409 66.9849 102.311 66.5594L102.307 66.5636Z" stroke="#005B26" stroke-miterlimit="10"/>
<path d="M97.1328 65.0742V285.898" stroke="#EA9494" stroke-width="2" stroke-miterlimit="10"/>
<path d="M97.1325 68.9892C99.3086 68.9892 101.073 67.2364 101.073 65.0742C101.073 62.912 99.3086 61.1592 97.1325 61.1592C94.9564 61.1592 93.1924 62.912 93.1924 65.0742C93.1924 67.2364 94.9564 68.9892 97.1325 68.9892Z" fill="#EA9494"/>
</g>
<defs>
<clipPath id="clip0_311_347">
<rect width="103" height="293" fill="white"/>
</clipPath>
</defs>
</svg>
