<svg width="241" height="689" viewBox="0 0 241 689" fill="none" xmlns="http://www.w3.org/2000/svg">
<g clip-path="url(#clip0_262_612)">
<path d="M227.06 160.13L226.15 159.03L228.75 156.89L226.61 154.29L227.71 153.38L230.76 157.08L227.06 160.13Z" fill="#90EFA5"/>
<path d="M220.7 158.87L219.71 157.84L222.15 155.52L219.83 153.08L220.87 152.1L224.17 155.57L220.7 158.87Z" fill="#90EFA5"/>
<path d="M213.92 158.7L212.94 157.67L215.37 155.35L213.05 152.91L214.09 151.93L217.39 155.4L213.92 158.7Z" fill="#90EFA5"/>
<path d="M207.14 158.54L206.16 157.5L208.6 155.18L206.28 152.74L207.31 151.76L210.62 155.23L207.14 158.54Z" fill="#90EFA5"/>
<path d="M200.36 158.37L199.38 157.33L201.82 155.01L199.5 152.57L200.53 151.59L203.84 155.06L200.36 158.37Z" fill="#90EFA5"/>
<path d="M193.59 158.2L192.6 157.16L195.04 154.84L192.72 152.4L193.76 151.42L197.06 154.89L193.59 158.2Z" fill="#90EFA5"/>
<path d="M187.01 158.33L185.96 157.36L188.26 154.9L185.81 152.6L186.78 151.56L190.28 154.83L187.01 158.33Z" fill="#90EFA5"/>
<path d="M180.57 158.87L179.44 157.99L181.5 155.33L178.84 153.27L179.72 152.14L183.51 155.08L180.57 158.87Z" fill="#90EFA5"/>
<path d="M173.52 159.31L172.47 158.34L174.76 155.87L172.29 153.58L173.26 152.54L176.77 155.79L173.52 159.31Z" fill="#90EFA5"/>
<path d="M166.52 159.23L165.54 158.2L167.98 155.88L165.66 153.44L166.69 152.45L170 155.93L166.52 159.23Z" fill="#90EFA5"/>
<path d="M159.75 159.06L158.76 158.03L161.2 155.71L158.88 153.27L159.92 152.28L163.22 155.76L159.75 159.06Z" fill="#90EFA5"/>
<path d="M152.97 158.89L151.98 157.86L154.42 155.54L152.1 153.1L153.14 152.11L156.44 155.59L152.97 158.89Z" fill="#90EFA5"/>
<path d="M146.19 158.72L145.21 157.69L147.64 155.37L145.32 152.93L146.36 151.95L149.66 155.42L146.19 158.72Z" fill="#90EFA5"/>
<path d="M139.53 158.75L138.51 157.75L140.87 155.35L138.46 152.99L139.46 151.97L142.89 155.33L139.53 158.75Z" fill="#90EFA5"/>
<path d="M132.75 158.82L131.73 157.82L134.09 155.41L131.68 153.06L132.68 152.04L136.11 155.4L132.75 158.82Z" fill="#90EFA5"/>
<path d="M125.97 158.88L124.95 157.88L127.31 155.48L124.9 153.12L125.9 152.1L129.33 155.46L125.97 158.88Z" fill="#90EFA5"/>
<path d="M119.19 158.94L118.17 157.94L120.53 155.54L118.12 153.18L119.13 152.16L122.55 155.52L119.19 158.94Z" fill="#90EFA5"/>
<path d="M112.67 159.45L111.58 158.52L113.76 155.96L111.2 153.78L112.13 152.69L115.78 155.8L112.67 159.45Z" fill="#90EFA5"/>
<path d="M105.91 159.99L104.82 159.06L107 156.5L104.44 154.32L105.37 153.23L109.02 156.34L105.91 159.99Z" fill="#90EFA5"/>
<path d="M99.5801 161.23L98.4001 160.42L100.33 157.65L97.5601 155.73L98.3801 154.56L102.31 157.3L99.5801 161.23Z" fill="#90EFA5"/>
<path d="M92.8999 162.43L91.7299 161.62L93.6499 158.85L90.8899 156.93L91.6999 155.76L95.6399 158.49L92.8999 162.43Z" fill="#90EFA5"/>
<path d="M87.9099 164.9L86.5399 164.53L87.4299 161.28L84.1799 160.39L84.5599 159.02L89.1799 160.28L87.9099 164.9Z" fill="#90EFA5"/>
<path d="M82.02 168.26L80.65 167.89L81.54 164.64L78.29 163.75L78.67 162.37L83.29 163.64L82.02 168.26Z" fill="#90EFA5"/>
<path d="M80.84 172.47L79.56 173.09L78.1 170.05L75.07 171.5L74.45 170.22L78.78 168.15L80.84 172.47Z" fill="#90EFA5"/>
<path d="M79.4199 177.72L78.4399 178.76L75.9799 176.47L73.6899 178.93L72.6399 177.95L75.9099 174.45L79.4199 177.72Z" fill="#90EFA5"/>
<path d="M79.6499 184.5L78.6799 185.54L76.2199 183.24L73.9199 185.7L72.8699 184.73L76.1499 181.22L79.6499 184.5Z" fill="#90EFA5"/>
<path d="M80.3699 190.83L79.5199 191.98L76.8099 189.98L74.8199 192.7L73.6699 191.85L76.5099 187.99L80.3699 190.83Z" fill="#90EFA5"/>
<path d="M81.3198 197.68L80.4298 198.79L77.7998 196.69L75.6998 199.32L74.5798 198.43L77.5798 194.68L81.3198 197.68Z" fill="#90EFA5"/>
<path d="M82.0698 204.42L81.1798 205.53L78.5498 203.43L76.4498 206.06L75.3298 205.17L78.3298 201.42L82.0698 204.42Z" fill="#90EFA5"/>
<path d="M82.8198 211.16L81.9298 212.27L79.2998 210.17L77.1998 212.8L76.0798 211.91L79.0798 208.16L82.8198 211.16Z" fill="#90EFA5"/>
<path d="M83.3999 218.05L82.4599 219.12L79.9199 216.92L77.7099 219.46L76.6299 218.53L79.7699 214.9L83.3999 218.05Z" fill="#90EFA5"/>
<path d="M83.8799 224.81L82.9399 225.89L80.3999 223.68L78.1899 226.23L77.1099 225.29L80.2599 221.67L83.8799 224.81Z" fill="#90EFA5"/>
<path d="M84.1098 231.82L83.0998 232.83L80.7198 230.45L78.3398 232.83L77.3298 231.82L80.7198 228.43L84.1098 231.82Z" fill="#90EFA5"/>
<path d="M84.1199 238.6L83.1098 239.61L80.7299 237.23L78.3498 239.61L77.3398 238.61L80.7299 235.21L84.1199 238.6Z" fill="#90EFA5"/>
<path d="M84.02 245.56L82.96 246.51L80.71 244.01L78.21 246.26L77.25 245.2L80.82 241.99L84.02 245.56Z" fill="#90EFA5"/>
<path d="M83.6599 252.33L82.5899 253.29L80.3499 250.78L77.8399 253.03L76.8899 251.97L80.4499 248.76L83.6599 252.33Z" fill="#90EFA5"/>
<path d="M83.29 259.1L82.23 260.06L79.98 257.55L77.48 259.8L76.52 258.74L80.09 255.53L83.29 259.1Z" fill="#90EFA5"/>
<path d="M82.8699 265.95L81.7899 266.88L79.5999 264.32L77.0399 266.51L76.1099 265.42L79.7599 262.31L82.8699 265.95Z" fill="#90EFA5"/>
<path d="M82.3398 272.71L81.2498 273.64L79.0698 271.08L76.5098 273.26L75.5798 272.18L79.2298 269.07L82.3398 272.71Z" fill="#90EFA5"/>
<path d="M81.81 279.47L80.72 280.4L78.54 277.84L75.98 280.02L75.05 278.94L78.69 275.82L81.81 279.47Z" fill="#90EFA5"/>
<path d="M81.28 286.23L80.19 287.16L78.01 284.6L75.45 286.78L74.52 285.7L78.16 282.58L81.28 286.23Z" fill="#90EFA5"/>
<path d="M80.75 292.99L79.66 293.92L77.47 291.36L74.91 293.54L73.99 292.46L77.63 289.34L80.75 292.99Z" fill="#90EFA5"/>
<path d="M80.4499 299.65L79.3999 300.61L77.1299 298.13L74.6399 300.4L73.6799 299.34L77.2199 296.11L80.4499 299.65Z" fill="#90EFA5"/>
<path d="M80.1499 306.42L79.0899 307.39L76.8199 304.9L74.3399 307.17L73.3699 306.12L76.9099 302.88L80.1499 306.42Z" fill="#90EFA5"/>
<path d="M79.8398 313.2L78.7798 314.16L76.5098 311.67L74.0298 313.94L73.0698 312.89L76.6098 309.66L79.8398 313.2Z" fill="#90EFA5"/>
<path d="M79.8 319.63L78.85 320.7L76.34 318.45L74.09 320.95L73.03 320L76.24 316.43L79.8 319.63Z" fill="#90EFA5"/>
<path d="M80.1599 326.4L79.2099 327.47L76.7099 325.22L74.4599 327.72L73.3899 326.77L76.5999 323.2L80.1599 326.4Z" fill="#90EFA5"/>
<path d="M80.53 333.17L79.57 334.24L77.07 331.99L74.82 334.49L73.76 333.54L76.96 329.97L80.53 333.17Z" fill="#90EFA5"/>
<path d="M81.3001 339.7L80.4101 340.82L77.7701 338.73L75.6801 341.37L74.5601 340.48L77.5401 336.72L81.3001 339.7Z" fill="#90EFA5"/>
<path d="M82.0798 346.44L81.1898 347.55L78.5499 345.46L76.4598 348.1L75.3398 347.21L78.3198 343.46L82.0798 346.44Z" fill="#90EFA5"/>
<path d="M82.3899 353.43L81.4299 354.49L78.9299 352.23L76.6799 354.73L75.6199 353.77L78.8299 350.21L82.3899 353.43Z" fill="#90EFA5"/>
<path d="M82.74 360.2L81.78 361.26L79.28 359L77.03 361.5L75.97 360.54L79.18 356.99L82.74 360.2Z" fill="#90EFA5"/>
<path d="M82.3799 367.34L81.3199 368.29L79.0799 365.77L76.5599 368L75.6199 366.94L79.1999 363.75L82.3799 367.34Z" fill="#90EFA5"/>
<path d="M81.98 374.11L80.91 375.06L78.68 372.54L76.16 374.77L75.21 373.7L78.8 370.52L81.98 374.11Z" fill="#90EFA5"/>
<path d="M81.5801 380.88L80.5101 381.82L78.2701 379.31L75.7501 381.54L74.8101 380.47L78.3901 377.29L81.5801 380.88Z" fill="#90EFA5"/>
<path d="M80.8399 387.85L79.6999 388.72L77.6499 386.05L74.9799 388.11L74.1099 386.98L77.9099 384.05L80.8399 387.85Z" fill="#90EFA5"/>
<path d="M79.96 394.57L78.83 395.44L76.78 392.78L74.11 394.83L73.24 393.7L77.04 390.77L79.96 394.57Z" fill="#90EFA5"/>
<path d="M78.87 401.47L77.69 402.27L75.8 399.48L73.02 401.38L72.21 400.2L76.18 397.5L78.87 401.47Z" fill="#90EFA5"/>
<path d="M77.61 408.13L76.43 408.93L74.53 406.15L71.75 408.04L70.95 406.86L74.91 404.16L77.61 408.13Z" fill="#90EFA5"/>
<path d="M76.2098 414.85L75.0098 415.62L73.1898 412.79L70.3598 414.61L69.5898 413.41L73.6199 410.82L76.2098 414.85Z" fill="#90EFA5"/>
<path d="M74.7699 421.48L73.5699 422.25L71.7499 419.42L68.9199 421.24L68.1499 420.03L72.1799 417.44L74.7699 421.48Z" fill="#90EFA5"/>
<path d="M73.39 428.06L72.2 428.85L70.34 426.05L67.53 427.91L66.74 426.72L70.74 424.07L73.39 428.06Z" fill="#90EFA5"/>
<path d="M72.0399 434.71L70.8499 435.5L68.9899 432.69L66.1899 434.55L65.3999 433.36L69.3899 430.71L72.0399 434.71Z" fill="#90EFA5"/>
<path d="M70.7 441.35L69.51 442.14L67.65 439.34L64.84 441.2L64.05 440.01L68.05 437.36L70.7 441.35Z" fill="#90EFA5"/>
<path d="M69.4801 447.93L68.31 448.75L66.3701 446L63.62 447.93L62.8 446.76L66.7201 444.01L69.4801 447.93Z" fill="#90EFA5"/>
<path d="M68.3099 454.61L67.1399 455.43L65.1999 452.67L62.4499 454.61L61.6299 453.44L65.5499 450.68L68.3099 454.61Z" fill="#90EFA5"/>
<path d="M67.13 461.29L65.97 462.11L64.03 459.35L61.28 461.29L60.46 460.12L64.38 457.36L67.13 461.29Z" fill="#90EFA5"/>
<path d="M65.96 467.97L64.8 468.79L62.86 466.03L60.11 467.96L59.29 466.8L63.21 464.04L65.96 467.97Z" fill="#90EFA5"/>
<path d="M64.8599 474.58L63.7099 475.42L61.7099 472.71L58.9999 474.71L58.1599 473.56L62.0199 470.72L64.8599 474.58Z" fill="#90EFA5"/>
<path d="M63.8399 481.28L62.6899 482.13L60.6899 479.42L57.9799 481.41L57.1399 480.26L60.9999 477.42L63.8399 481.28Z" fill="#90EFA5"/>
<path d="M62.8199 487.98L61.6699 488.83L59.6799 486.12L56.9699 488.11L56.1199 486.96L59.9799 484.12L62.8199 487.98Z" fill="#90EFA5"/>
<path d="M61.9199 494.65L60.7799 495.51L58.74 492.83L56.06 494.87L55.2 493.74L59.02 490.83L61.9199 494.65Z" fill="#90EFA5"/>
<path d="M61.01 501.37L59.87 502.23L57.83 499.55L55.15 501.59L54.29 500.45L58.1 497.55L61.01 501.37Z" fill="#90EFA5"/>
<path d="M60.0899 508.09L58.9599 508.95L56.9199 506.27L54.2399 508.31L53.3699 507.17L57.1899 504.27L60.0899 508.09Z" fill="#90EFA5"/>
<path d="M59.23 514.79L58.1 515.66L56.04 512.99L53.38 515.05L52.51 513.92L56.3 510.99L59.23 514.79Z" fill="#90EFA5"/>
<path d="M58.3599 521.51L57.2299 522.38L55.1699 519.72L52.4999 521.77L51.6299 520.64L55.4299 517.71L58.3599 521.51Z" fill="#90EFA5"/>
<path d="M57.48 528.24L56.35 529.11L54.3 526.44L51.63 528.5L50.76 527.36L54.56 524.44L57.48 528.24Z" fill="#90EFA5"/>
<path d="M56.6199 534.94L55.4999 535.82L53.4299 533.17L50.7699 535.23L49.8899 534.11L53.6799 531.16L56.6199 534.94Z" fill="#90EFA5"/>
<path d="M55.8299 541.66L54.7099 542.54L52.6299 539.9L49.9799 541.98L49.0999 540.86L52.8599 537.89L55.8299 541.66Z" fill="#90EFA5"/>
<path d="M55.03 548.39L53.91 549.27L51.8301 546.63L49.18 548.71L48.3 547.59L52.0601 544.62L55.03 548.39Z" fill="#90EFA5"/>
<path d="M54.23 555.12L53.11 556.01L51.02 553.36L48.38 555.45L47.5 554.32L51.26 551.36L54.23 555.12Z" fill="#90EFA5"/>
<path d="M53.43 561.86L52.31 562.74L50.22 560.1L47.58 562.18L46.7 561.06L50.4599 558.09L53.43 561.86Z" fill="#90EFA5"/>
<path d="M52.6299 568.59L51.4999 569.47L49.4199 566.83L46.7799 568.91L45.8899 567.79L49.6599 564.82L52.6299 568.59Z" fill="#90EFA5"/>
<path d="M52.24 575.18L51.16 576.12L48.95 573.59L46.41 575.81L45.47 574.73L49.08 571.58L52.24 575.18Z" fill="#90EFA5"/>
<path d="M51.79 581.95L50.71 582.89L48.5 580.36L45.96 582.57L45.02 581.5L48.63 578.34L51.79 581.95Z" fill="#90EFA5"/>
<path d="M51.3398 588.71L50.2598 589.65L48.0498 587.12L45.5098 589.34L44.5698 588.26L48.1798 585.11L51.3398 588.71Z" fill="#90EFA5"/>
<path d="M51.1999 595.01L50.2699 596.09L47.7199 593.89L45.5199 596.43L44.4399 595.5L47.5699 591.87L51.1999 595.01Z" fill="#90EFA5"/>
<path d="M51.6899 601.77L50.7599 602.85L48.2099 600.65L46.0099 603.19L44.9299 602.26L48.0699 598.63L51.6899 601.77Z" fill="#90EFA5"/>
<path d="M52.1899 608.53L51.2499 609.61L48.7099 607.41L46.5099 609.96L45.4299 609.02L48.5599 605.4L52.1899 608.53Z" fill="#90EFA5"/>
<path d="M53.6899 613.97L53.1399 615.28L50.0299 613.98L48.7299 617.08L47.4099 616.53L49.2699 612.11L53.6899 613.97Z" fill="#90EFA5"/>
<path d="M56.25 620.24L55.7 621.56L52.59 620.25L51.29 623.36L49.97 622.8L51.83 618.38L56.25 620.24Z" fill="#90EFA5"/>
<path d="M59.2499 625.45L58.9899 626.86L55.6799 626.25L55.0699 629.56L53.6699 629.3L54.5399 624.58L59.2499 625.45Z" fill="#90EFA5"/>
<path d="M62.9899 631.72L62.5099 633.06L59.3399 631.94L58.2199 635.11L56.8699 634.64L58.4699 630.12L62.9899 631.72Z" fill="#90EFA5"/>
<path d="M65.91 637.84L65.43 639.18L62.26 638.06L61.13 641.23L59.79 640.76L61.39 636.24L65.91 637.84Z" fill="#90EFA5"/>
<path d="M68.69 643.24L68.49 644.66L65.16 644.19L64.69 647.52L63.28 647.32L63.95 642.57L68.69 643.24Z" fill="#90EFA5"/>
<path d="M73.48 647.08L73.57 648.51L70.21 648.71L70.41 652.07L68.98 652.15L68.7 647.37L73.48 647.08Z" fill="#90EFA5"/>
<path d="M78.6899 649.86L79.1299 651.22L75.9299 652.25L76.9699 655.46L75.6099 655.9L74.1299 651.34L78.6899 649.86Z" fill="#90EFA5"/>
<path d="M84.93 653.21L85.25 654.6L81.96 655.35L82.71 658.63L81.31 658.95L80.25 654.27L84.93 653.21Z" fill="#90EFA5"/>
<path d="M90.5 657.59L90.69 659.01L87.36 659.45L87.8 662.79L86.38 662.98L85.75 658.23L90.5 657.59Z" fill="#90EFA5"/>
<path d="M222.45 663.48H22.3701C15.7427 663.48 10.3701 668.853 10.3701 675.48V676.54C10.3701 683.167 15.7427 688.54 22.3701 688.54H222.45C229.078 688.54 234.45 683.167 234.45 676.54V675.48C234.45 668.853 229.078 663.48 222.45 663.48Z" fill="#EA9494"/>
<path d="M63.5801 656.89H27.0801C25.5502 656.89 24.3101 658.13 24.3101 659.66C24.3101 661.19 25.5502 662.43 27.0801 662.43H63.5801C65.1099 662.43 66.3501 661.19 66.3501 659.66C66.3501 658.13 65.1099 656.89 63.5801 656.89Z" fill="#EA9494"/>
<path d="M114.93 656.89H78.4299C76.9001 656.89 75.6599 658.13 75.6599 659.66C75.6599 661.19 76.9001 662.43 78.4299 662.43H114.93C116.46 662.43 117.7 661.19 117.7 659.66C117.7 658.13 116.46 656.89 114.93 656.89Z" fill="#EA9494"/>
<path d="M35.8599 654.3L36.9699 653.4L39.0799 656.02L41.6999 653.9L42.5999 655.01L38.8699 658.02L35.8599 654.3Z" fill="#90EFA5"/>
<path d="M36.5701 647.55L37.6801 646.66L39.8001 649.27L42.4201 647.16L43.3101 648.27L39.5901 651.28L36.5701 647.55Z" fill="#90EFA5"/>
<path d="M37.29 640.81L38.4 639.91L40.51 642.53L43.13 640.42L44.03 641.53L40.3 644.54L37.29 640.81Z" fill="#90EFA5"/>
<path d="M38 634.07L39.11 633.17L41.23 635.79L43.85 633.67L44.75 634.78L41.02 637.8L38 634.07Z" fill="#90EFA5"/>
<path d="M38.72 627.33L39.83 626.43L41.95 629.05L44.56 626.93L45.46 628.04L41.73 631.06L38.72 627.33Z" fill="#90EFA5"/>
<path d="M39.29 620.85L40.33 619.86L42.64 622.31L45.08 619.99L46.07 621.02L42.59 624.32L39.29 620.85Z" fill="#90EFA5"/>
<path d="M38.8398 614.35L39.7898 613.29L42.2898 615.53L44.5398 613.03L45.6098 613.98L42.3998 617.55L38.8398 614.35Z" fill="#90EFA5"/>
<path d="M38.47 607.58L39.43 606.51L41.93 608.76L44.18 606.26L45.24 607.21L42.04 610.78L38.47 607.58Z" fill="#90EFA5"/>
<path d="M38.1099 600.81L39.0699 599.74L41.5699 601.99L43.8199 599.49L44.8799 600.44L41.6799 604.01L38.1099 600.81Z" fill="#90EFA5"/>
<path d="M37.47 594.49L38.29 593.31L41.05 595.24L42.97 592.48L44.14 593.3L41.4 597.23L37.47 594.49Z" fill="#90EFA5"/>
<path d="M36.28 587.81L37.1 586.64L39.86 588.57L41.79 585.81L42.96 586.62L40.21 590.56L36.28 587.81Z" fill="#90EFA5"/>
<path d="M35.0999 581.13L35.9199 579.96L38.6799 581.89L40.5999 579.13L41.7699 579.95L39.0299 583.88L35.0999 581.13Z" fill="#90EFA5"/>
<path d="M33.77 574.58L34.56 573.39L37.37 575.24L39.22 572.43L40.41 573.21L37.78 577.22L33.77 574.58Z" fill="#90EFA5"/>
<path d="M32.3999 567.94L33.1899 566.75L35.9999 568.6L37.8499 565.79L39.0399 566.57L36.4099 570.58L32.3999 567.94Z" fill="#90EFA5"/>
<path d="M31.55 560.82L32.4701 559.73L35.0401 561.9L37.21 559.32L38.3 560.24L35.21 563.91L31.55 560.82Z" fill="#90EFA5"/>
<path d="M30.97 554.07L31.89 552.97L34.46 555.14L36.63 552.57L37.72 553.49L34.63 557.16L30.97 554.07Z" fill="#90EFA5"/>
<path d="M30.3899 547.31L31.3099 546.22L33.8899 548.39L36.0599 545.81L37.1499 546.73L34.0599 550.4L30.3899 547.31Z" fill="#90EFA5"/>
<path d="M30.9099 540.06L31.9699 539.11L34.2199 541.62L36.7299 539.38L37.6799 540.44L34.0999 543.64L30.9099 540.06Z" fill="#90EFA5"/>
<path d="M31.29 533.29L32.35 532.34L34.6 534.85L37.11 532.61L38.06 533.67L34.48 536.87L31.29 533.29Z" fill="#90EFA5"/>
<path d="M32.6299 526.2L33.8099 525.39L35.7099 528.17L38.4899 526.27L39.2999 527.45L35.3399 530.15L32.6299 526.2Z" fill="#90EFA5"/>
<path d="M33.8599 519.58L35.0199 518.76L36.9599 521.51L39.7099 519.57L40.5399 520.73L36.6199 523.5L33.8599 519.58Z" fill="#90EFA5"/>
<path d="M34.8799 512.93L36.0399 512.09L38.0199 514.81L40.7399 512.83L41.5799 513.98L37.6999 516.8L34.8799 512.93Z" fill="#90EFA5"/>
<path d="M35.9399 506.23L37.0899 505.39L39.0699 508.11L41.7899 506.13L42.6299 507.28L38.7599 510.11L35.9399 506.23Z" fill="#90EFA5"/>
<path d="M36.71 499.82L37.78 498.88L40.01 501.4L42.53 499.17L43.48 500.25L39.88 503.42L36.71 499.82Z" fill="#90EFA5"/>
<path d="M37.1399 493.05L38.2099 492.11L40.4399 494.63L42.9599 492.41L43.9099 493.48L40.3099 496.65L37.1399 493.05Z" fill="#90EFA5"/>
<path d="M37.48 486.45L38.51 485.45L40.85 487.87L43.27 485.52L44.26 486.55L40.82 489.89L37.48 486.45Z" fill="#90EFA5"/>
<path d="M37.5898 479.67L38.6098 478.67L40.9598 481.09L43.3698 478.74L44.3698 479.77L40.9298 483.11L37.5898 479.67Z" fill="#90EFA5"/>
<path d="M37.6899 472.89L38.7099 471.89L41.0599 474.31L43.4699 471.96L44.4699 472.99L41.0299 476.33L37.6899 472.89Z" fill="#90EFA5"/>
<path d="M37.79 466.11L38.82 465.11L41.16 467.53L43.58 465.19L44.57 466.21L41.13 469.55L37.79 466.11Z" fill="#90EFA5"/>
<path d="M37.8301 459.37L38.8401 458.36L41.2201 460.75L43.6001 458.37L44.6101 459.39L41.2101 462.77L37.8301 459.37Z" fill="#90EFA5"/>
<path d="M37.8398 452.59L38.8498 451.58L41.2298 453.97L43.6098 451.59L44.6198 452.61L41.2298 455.99L37.8398 452.59Z" fill="#90EFA5"/>
<path d="M37.8599 445.81L38.8699 444.8L41.2399 447.19L43.6299 444.81L44.6399 445.83L41.2399 449.21L37.8599 445.81Z" fill="#90EFA5"/>
<path d="M37.8699 439.03L38.8799 438.02L41.2599 440.41L43.6399 438.03L44.6499 439.05L41.2499 442.43L37.8699 439.03Z" fill="#90EFA5"/>
<path d="M37.8799 432.25L38.8899 431.24L41.2699 433.63L43.6599 431.25L44.6599 432.27L41.2699 435.65L37.8799 432.25Z" fill="#90EFA5"/>
<path d="M37.8799 425.48L38.8899 424.47L41.2799 426.85L43.6499 424.47L44.6599 425.47L41.2799 428.87L37.8799 425.48Z" fill="#90EFA5"/>
<path d="M37.8699 418.7L38.8799 417.69L41.2599 420.07L43.6399 417.69L44.6499 418.69L41.2699 422.09L37.8699 418.7Z" fill="#90EFA5"/>
<path d="M37.8599 411.92L38.8699 410.91L41.2499 413.29L43.6299 410.91L44.6399 411.91L41.2599 415.31L37.8599 411.92Z" fill="#90EFA5"/>
<path d="M37.8499 405.14L38.8599 404.13L41.2399 406.51L43.6199 404.13L44.6299 405.13L41.2399 408.53L37.8499 405.14Z" fill="#90EFA5"/>
<path d="M37.8 398.39L38.8 397.37L41.2001 399.73L43.5601 397.33L44.5801 398.33L41.2201 401.75L37.8 398.39Z" fill="#90EFA5"/>
<path d="M37.73 391.61L38.73 390.59L41.14 392.95L43.49 390.55L44.51 391.55L41.15 394.97L37.73 391.61Z" fill="#90EFA5"/>
<path d="M37.6099 384.88L38.5999 383.85L41.0399 386.17L43.3599 383.73L44.3899 384.72L41.0899 388.19L37.6099 384.88Z" fill="#90EFA5"/>
<path d="M37.4099 378.19L38.3599 377.14L40.8599 379.39L43.1199 376.9L44.1799 377.85L40.9599 381.41L37.4099 378.19Z" fill="#90EFA5"/>
<path d="M36.97 371.54L37.89 370.45L40.47 372.63L42.64 370.05L43.73 370.98L40.63 374.64L36.97 371.54Z" fill="#90EFA5"/>
<path d="M36.4099 364.79L37.3299 363.7L39.8999 365.87L42.0699 363.3L43.1599 364.22L40.0699 367.88L36.4099 364.79Z" fill="#90EFA5"/>
<path d="M35.8398 358.03L36.7598 356.94L39.3298 359.11L41.5098 356.54L42.5998 357.46L39.4998 361.13L35.8398 358.03Z" fill="#90EFA5"/>
<path d="M34.99 351.49L35.85 350.35L38.54 352.38L40.57 349.7L41.71 350.56L38.82 354.38L34.99 351.49Z" fill="#90EFA5"/>
<path d="M34.0601 344.79L34.9201 343.64L37.6101 345.67L39.6301 342.97L40.7701 343.83L37.8901 347.66L34.0601 344.79Z" fill="#90EFA5"/>
<path d="M33.0801 338.09L33.9301 336.95L36.6301 338.96L38.6401 336.26L39.7901 337.11L36.9201 340.96L33.0801 338.09Z" fill="#90EFA5"/>
<path d="M32.4199 331.12L33.3399 330.03L35.8999 332.22L38.0899 329.66L39.1799 330.58L36.0599 334.23L32.4199 331.12Z" fill="#90EFA5"/>
<path d="M31.8799 324.36L32.8099 323.28L35.3699 325.46L37.5499 322.9L38.6399 323.83L35.5299 327.47L31.8799 324.36Z" fill="#90EFA5"/>
<path d="M31.8999 317.27L32.9199 316.27L35.2699 318.69L37.6799 316.34L38.6799 317.36L35.2399 320.71L31.8999 317.27Z" fill="#90EFA5"/>
<path d="M31.99 310.49L33.02 309.5L35.36 311.91L37.78 309.56L38.77 310.58L35.34 313.93L31.99 310.49Z" fill="#90EFA5"/>
<path d="M32.0898 303.71L33.1098 302.72L35.4598 305.13L37.8698 302.78L38.8698 303.8L35.4298 307.15L32.0898 303.71Z" fill="#90EFA5"/>
<path d="M32.29 296.72L33.37 295.79L35.57 298.35L38.12 296.16L39.05 297.24L35.41 300.36L32.29 296.72Z" fill="#90EFA5"/>
<path d="M33.3398 289.81L34.4798 288.95L36.4998 291.64L39.1898 289.61L40.0498 290.75L36.2198 293.64L33.3398 289.81Z" fill="#90EFA5"/>
<path d="M34.28 283.09L35.42 282.23L37.45 284.92L40.14 282.9L41 284.04L37.17 286.92L34.28 283.09Z" fill="#90EFA5"/>
<path d="M35.22 276.38L36.36 275.52L38.39 278.21L41.07 276.18L41.94 277.32L38.11 280.21L35.22 276.38Z" fill="#90EFA5"/>
<path d="M36.1499 269.67L37.2899 268.81L39.3199 271.49L42.0099 269.46L42.8699 270.6L39.0399 273.49L36.1499 269.67Z" fill="#90EFA5"/>
<path d="M37.0898 262.95L38.2298 262.09L40.2598 264.78L42.9398 262.75L43.7998 263.89L39.9798 266.78L37.0898 262.95Z" fill="#90EFA5"/>
<path d="M37.1099 256.62L38.1299 255.62L40.4899 258.01L42.8899 255.64L43.8899 256.66L40.4799 260.03L37.1099 256.62Z" fill="#90EFA5"/>
<path d="M37.1499 249.84L38.1699 248.84L40.5299 251.23L42.9299 248.86L43.9299 249.88L40.5199 253.25L37.1499 249.84Z" fill="#90EFA5"/>
<path d="M37.1899 243.06L38.2099 242.06L40.5699 244.45L42.9699 242.09L43.9699 243.1L40.5599 246.47L37.1899 243.06Z" fill="#90EFA5"/>
<path d="M37.01 236.59L37.93 235.5L40.5 237.68L42.68 235.11L43.77 236.03L40.67 239.69L37.01 236.59Z" fill="#90EFA5"/>
<path d="M36.45 229.84L37.3699 228.75L39.9399 230.92L42.11 228.35L43.2 229.27L40.11 232.93L36.45 229.84Z" fill="#90EFA5"/>
<path d="M35.8799 223.08L36.7999 221.99L39.3699 224.16L41.5499 221.59L42.6399 222.51L39.5399 226.18L35.8799 223.08Z" fill="#90EFA5"/>
<path d="M35.3201 216.32L36.2401 215.23L38.8101 217.41L40.9801 214.84L42.0701 215.76L38.9801 219.42L35.3201 216.32Z" fill="#90EFA5"/>
<path d="M34.75 209.57L35.68 208.48L38.25 210.65L40.42 208.08L41.51 209L38.41 212.66L34.75 209.57Z" fill="#90EFA5"/>
<path d="M33.8599 203.02L34.7199 201.89L37.3999 203.92L39.4399 201.24L40.5699 202.11L37.6699 205.93L33.8599 203.02Z" fill="#90EFA5"/>
<path d="M32.9399 196.3L33.8099 195.17L36.4899 197.21L38.5199 194.53L39.6599 195.39L36.7599 199.21L32.9399 196.3Z" fill="#90EFA5"/>
<path d="M31.97 189.75L32.78 188.57L35.55 190.49L37.46 187.73L38.64 188.54L35.91 192.48L31.97 189.75Z" fill="#90EFA5"/>
<path d="M30.7 183.19L31.4799 182L34.2999 183.83L36.13 181L37.33 181.78L34.72 185.8L30.7 183.19Z" fill="#90EFA5"/>
<path d="M29.29 176.56L30.06 175.37L32.89 177.2L34.72 174.37L35.92 175.15L33.31 179.17L29.29 176.56Z" fill="#90EFA5"/>
<path d="M27.8699 169.93L28.6499 168.73L31.4699 170.57L33.3099 167.74L34.4999 168.52L31.8999 172.54L27.8699 169.93Z" fill="#90EFA5"/>
<path d="M26.46 163.3L27.24 162.1L30.06 163.93L31.89 161.11L33.09 161.89L30.48 165.91L26.46 163.3Z" fill="#90EFA5"/>
<path d="M27.0701 155.59L28.1501 154.65L30.3701 157.18L32.9001 154.96L33.8401 156.03L30.2401 159.19L27.0701 155.59Z" fill="#90EFA5"/>
<path d="M27.51 148.83L28.58 147.88L30.81 150.41L33.33 148.19L34.28 149.26L30.68 152.43L27.51 148.83Z" fill="#90EFA5"/>
<path d="M29.0601 141.19L30.3801 140.64L31.6701 143.75L34.7801 142.45L35.3301 143.77L30.9001 145.61L29.0601 141.19Z" fill="#90EFA5"/>
<path d="M32.5601 134.72L33.9601 134.41L34.6801 137.7L37.9701 136.97L38.2801 138.37L33.6001 139.4L32.5601 134.72Z" fill="#90EFA5"/>
<path d="M36.21 129.01L37.6 128.7L38.33 131.98L41.62 131.26L41.92 132.65L37.24 133.69L36.21 129.01Z" fill="#90EFA5"/>
<path d="M42.75 124.27L44.16 124.5L43.62 127.82L46.94 128.36L46.71 129.77L41.98 129L42.75 124.27Z" fill="#90EFA5"/>
<path d="M51.0199 121.49L51.9399 122.58L49.3599 124.75L51.5299 127.33L50.4399 128.25L47.3499 124.58L51.0199 121.49Z" fill="#90EFA5"/>
<path d="M57.7699 122.07L58.6899 123.16L56.1199 125.33L58.2899 127.9L57.1999 128.82L54.1099 125.16L57.7699 122.07Z" fill="#90EFA5"/>
<path d="M65.0899 126.36L65.3099 127.77L61.9799 128.28L62.4999 131.61L61.0899 131.83L60.3599 127.09L65.0899 126.36Z" fill="#90EFA5"/>
<path d="M70.5601 130.36L70.7801 131.77L67.4601 132.29L67.9701 135.61L66.5601 135.83L65.8301 131.1L70.5601 130.36Z" fill="#90EFA5"/>
<path d="M76.04 134.34L76.26 135.75L72.94 136.28L73.46 139.6L72.05 139.83L71.3 135.09L76.04 134.34Z" fill="#90EFA5"/>
<path d="M81.52 138.33L81.75 139.74L78.42 140.27L78.95 143.59L77.53 143.81L76.79 139.08L81.52 138.33Z" fill="#90EFA5"/>
<path d="M87.0799 139.6L87.7599 140.85L84.7999 142.45L86.3999 145.41L85.1399 146.09L82.8599 141.87L87.0799 139.6Z" fill="#90EFA5"/>
<path d="M93.5799 141.54L94.2499 142.79L91.2899 144.39L92.8899 147.35L91.6399 148.03L89.3599 143.81L93.5799 141.54Z" fill="#90EFA5"/>
<path d="M99.4699 142.24L100.43 143.31L97.9199 145.56L100.17 148.06L99.1099 149.01L95.9099 145.45L99.4699 142.24Z" fill="#90EFA5"/>
<path d="M106.24 142.6L107.2 143.67L104.69 145.92L106.94 148.42L105.88 149.37L102.68 145.81L106.24 142.6Z" fill="#90EFA5"/>
<path d="M113.01 142.97L113.97 144.03L111.46 146.28L113.71 148.78L112.65 149.74L109.45 146.17L113.01 142.97Z" fill="#90EFA5"/>
<path d="M119.71 143.15L120.69 144.19L118.24 146.5L120.55 148.95L119.51 149.93L116.22 146.44L119.71 143.15Z" fill="#90EFA5"/>
<path d="M126.48 143.34L127.46 144.38L125.02 146.69L127.33 149.14L126.29 150.12L123 146.64L126.48 143.34Z" fill="#90EFA5"/>
<path d="M133.25 143.51L134.23 144.54L131.8 146.86L134.12 149.3L133.09 150.28L129.78 146.82L133.25 143.51Z" fill="#90EFA5"/>
<path d="M140.02 143.66L141.01 144.7L138.57 147.02L140.9 149.46L139.87 150.44L136.55 146.97L140.02 143.66Z" fill="#90EFA5"/>
<path d="M146.85 143.9L147.82 144.95L145.35 147.23L147.64 149.7L146.59 150.67L143.33 147.15L146.85 143.9Z" fill="#90EFA5"/>
<path d="M153.63 144.16L154.6 145.21L152.13 147.5L154.41 149.97L153.36 150.94L150.11 147.42L153.63 144.16Z" fill="#90EFA5"/>
<path d="M160.4 144.43L161.37 145.48L158.9 147.76L161.19 150.23L160.14 151.2L156.88 147.68L160.4 144.43Z" fill="#90EFA5"/>
<path d="M167.24 144.78L168.19 145.85L165.67 148.09L167.91 150.6L166.85 151.55L163.66 147.97L167.24 144.78Z" fill="#90EFA5"/>
<path d="M174 145.18L174.95 146.24L172.44 148.48L174.68 150.99L173.61 151.94L170.42 148.36L174 145.18Z" fill="#90EFA5"/>
<path d="M180.77 145.57L181.72 146.63L179.21 148.87L181.45 151.38L180.38 152.33L177.19 148.75L180.77 145.57Z" fill="#90EFA5"/>
<path d="M187.54 145.96L188.49 147.02L185.98 149.26L188.22 151.77L187.15 152.72L183.96 149.15L187.54 145.96Z" fill="#90EFA5"/>
<path d="M194.32 146.35L195.27 147.42L192.75 149.65L194.98 152.18L193.91 153.12L190.73 149.53L194.32 146.35Z" fill="#90EFA5"/>
<path d="M201.09 146.77L202.04 147.84L199.51 150.07L201.74 152.59L200.67 153.54L197.5 149.95L201.09 146.77Z" fill="#90EFA5"/>
<path d="M207.75 147L208.73 148.04L206.29 150.36L208.6 152.8L207.57 153.78L204.27 150.3L207.75 147Z" fill="#90EFA5"/>
<path d="M214.54 147.19L215.52 148.23L213.07 150.54L215.37 152.99L214.33 153.97L211.05 150.48L214.54 147.19Z" fill="#90EFA5"/>
<path d="M221.32 147.4L222.29 148.44L219.84 150.75L222.15 153.2L221.11 154.18L217.82 150.69L221.32 147.4Z" fill="#90EFA5"/>
<path d="M228.09 147.61L229.07 148.65L226.62 150.95L228.93 153.4L227.89 154.38L224.6 150.89L228.09 147.61Z" fill="#90EFA5"/>
<path d="M238.88 156.42C241.26 124.72 207.05 144.45 183.39 144.75C130.64 128.1 104.44 152.19 65.8501 119.79C60.1901 115.31 67.4101 108.6 65.3401 102.74C66.3401 96.15 92.7401 112.8 89.4301 96.11C87.1801 90.05 93.8401 86.16 91.2901 80.76C90.0801 78.33 89.0501 75.16 94.1201 75.08C97.0001 75.03 97.1101 72.79 96.7001 70.54C83.4401 54.47 97.1701 49.52 88.5801 32.9C88.1101 29.57 84.9201 26.8 83.6401 23.89C85.8601 5.19997 59.2301 -0.140027 44.6701 1.90997C19.9801 3.89997 4.85007 27.34 10.8201 50.22C14.2101 71.19 38.0601 87.3 22.5301 109.43C-35.5799 166.79 47.8501 237.04 23.1801 301.11C-5.21993 337.33 31.2901 360.33 23.7001 394.9C12.3301 429.64 33.0501 464.84 20.7201 499.25C0.760071 549.08 38.4701 598.79 24.6401 648.87C23.8501 658.19 38.2201 656.74 44.1601 656.58C57.1601 652.14 86.9701 658.08 103.63 656.91C107.35 656.65 108.86 652.01 105.94 649.73C88.1001 635.77 54.3601 635.48 55.9901 596.03C59.3801 554.3 70.5801 511.67 72.0601 471.79C78.5301 433.73 95.3401 394.96 91.5001 354.04C91.2701 342.26 88.6801 329.62 93.6601 318.56C100.28 290.32 89.5401 261.11 96.7401 232.75C101.3 218.65 91.9601 197.92 93.8301 183.92C95.3801 180.84 95.7301 172.32 95.3901 169.41C94.8201 164.46 104.78 165.53 109.8 164.85C128.37 162.33 125.23 160.73 143.26 164.93C177.55 172.93 191.5 144.44 215.23 164.76C222.29 167.41 231.15 170.27 232.25 161.3C232.65 157.97 227.74 160.73 228.27 155.11C230.22 134.47 234.45 157.41 238.89 156.41L238.88 156.42Z" stroke="#005B26" stroke-width="3" stroke-miterlimit="10"/>
<path d="M226.8 152.92V671.84" stroke="#EA9494" stroke-width="4" stroke-miterlimit="10"/>
<path d="M226.8 162.12C231.881 162.12 236 158.001 236 152.92C236 147.839 231.881 143.72 226.8 143.72C221.719 143.72 217.6 147.839 217.6 152.92C217.6 158.001 221.719 162.12 226.8 162.12Z" fill="#EA9494"/>
</g>
<defs>
<clipPath id="clip0_262_612">
<rect width="240.5" height="688.53" fill="white"/>
</clipPath>
</defs>
</svg>
