<svg width="244" height="31" viewBox="0 0 244 31" fill="none" xmlns="http://www.w3.org/2000/svg">
<path d="M67.7246 7.8181H56.8234V4.67432H73.3181L59.3548 27.6198L56.7009 25.9459L67.7654 7.77727L67.7246 7.8181Z" fill="#10552D"/>
<path d="M78.4624 25.8237L83.6884 19.1278C83.2393 19.2095 82.8718 19.2503 82.5044 19.2503C79.8914 19.2503 78.2174 18.0663 77.3192 17.1681C76.176 16.0249 75.2778 14.3917 75.2778 12.1053C75.2778 9.81895 76.1352 7.90002 77.4825 6.55269C78.8707 5.1237 80.7488 4.30713 83.1985 4.30713C86.2198 4.30713 87.9754 5.53198 88.9144 6.51186C89.8535 7.49174 90.8334 9.08404 90.8334 11.5337C90.8334 13.126 90.4659 14.3917 89.7718 15.7391C88.9553 17.413 88.057 18.3929 87.0772 19.6994L80.9121 27.6201L78.4624 25.7828V25.8237ZM86.2198 15.045C87.0363 14.1876 87.5263 12.9219 87.5263 11.7379C87.5263 10.5539 87.0772 9.36984 86.2198 8.5941C85.4032 7.77754 84.1783 7.32842 83.076 7.32842C81.8511 7.32842 80.6671 7.90002 79.9322 8.5941C79.1973 9.32901 78.6257 10.4722 78.6257 11.8604C78.6257 13.0852 79.0748 14.3101 79.9322 15.1675C80.6671 15.8615 81.8103 16.3923 83.076 16.3923C84.2192 16.3923 85.4032 15.9432 86.2606 15.045H86.2198Z" fill="#10552D"/>
<path d="M98.1417 25.8237L103.368 19.1278C102.919 19.2095 102.551 19.2503 102.184 19.2503C99.5707 19.2503 97.8967 18.0663 96.9985 17.1681C95.8553 16.0249 94.9571 14.3917 94.9571 12.1053C94.9571 9.81895 95.8145 7.90002 97.1618 6.55269C98.55 5.1237 100.428 4.30713 102.878 4.30713C105.899 4.30713 107.655 5.53198 108.594 6.51186C109.533 7.49174 110.513 9.08404 110.513 11.5337C110.513 13.126 110.145 14.3917 109.451 15.7391C108.635 17.413 107.736 18.3929 106.756 19.6994L100.591 27.6201L98.1417 25.7828V25.8237ZM105.899 15.045C106.716 14.1876 107.206 12.9219 107.206 11.7379C107.206 10.5539 106.756 9.36984 105.899 8.5941C105.083 7.77754 103.858 7.32842 102.755 7.32842C101.53 7.32842 100.346 7.90002 99.6115 8.5941C98.8766 9.32901 98.305 10.4722 98.305 11.8604C98.305 13.0852 98.7541 14.3101 99.6115 15.1675C100.346 15.8615 101.49 16.3923 102.755 16.3923C103.899 16.3923 105.083 15.9432 105.94 15.045H105.899Z" fill="#10552D"/>
<path d="M137.623 26.8839H122.72L130.396 17.5751C131.172 16.636 132.315 15.1662 133.05 14.1047C133.662 13.1656 134.234 12.2265 134.234 10.92C134.234 9.04194 133.009 7.32715 130.518 7.32715C128.028 7.32715 126.721 9.24608 126.599 11.3692H123.333C123.414 9.20525 124.353 7.49046 125.211 6.51058C126.027 5.61236 127.62 4.34668 130.396 4.34668C135.132 4.34668 137.541 7.57212 137.541 11.0425C137.541 12.8798 136.847 14.3496 135.949 15.697C135.132 16.881 134.111 18.1058 132.805 19.6981L129.334 23.781H137.623V26.9247V26.8839Z" fill="#10552D"/>
<path d="M155.587 17.1272C156.404 18.2296 156.567 19.4544 156.567 20.4343C156.567 22.6799 155.71 24.2314 154.811 25.1704C153.791 26.2728 152.117 27.2526 149.585 27.2526C147.054 27.2526 145.38 26.2728 144.359 25.1704C143.461 24.2314 142.604 22.7207 142.604 20.4343C142.604 19.4544 142.767 18.1888 143.624 17.1272C144.114 16.4331 144.931 15.7799 145.952 15.3308C145.013 14.9225 144.4 14.2692 143.992 13.6568C143.42 12.7586 143.175 11.6154 143.175 10.6355C143.175 8.8799 143.828 7.20594 145.053 6.02192C145.747 5.36867 147.176 4.30713 149.626 4.30713C152.076 4.30713 153.505 5.32784 154.199 6.02192C155.424 7.20594 156.077 8.8799 156.077 10.6355C156.077 11.6154 155.832 12.7586 155.26 13.6568C154.852 14.2692 154.24 14.9225 153.301 15.3308C154.321 15.7799 155.138 16.4331 155.628 17.1272H155.587ZM146.972 17.8213C146.319 18.4746 145.952 19.5361 145.952 20.516C145.952 21.3734 146.278 22.3941 146.931 23.129C147.381 23.6598 148.238 24.2722 149.585 24.2722C150.933 24.2722 151.79 23.6598 152.239 23.129C152.892 22.3941 153.219 21.4142 153.219 20.516C153.219 19.5361 152.852 18.4746 152.198 17.8213C151.545 17.1681 150.524 16.8006 149.585 16.8006C148.646 16.8006 147.626 17.1681 146.972 17.8213ZM147.176 8.22665C146.605 8.79824 146.237 9.69647 146.237 10.6763C146.237 11.6562 146.646 12.5136 147.136 13.0036C147.748 13.616 148.728 13.9834 149.585 13.9834C150.443 13.9834 151.463 13.616 152.035 13.0036C152.525 12.5136 152.933 11.6971 152.933 10.6763C152.933 9.65564 152.566 8.79824 151.994 8.22665C151.423 7.69588 150.606 7.32842 149.585 7.32842C148.565 7.32842 147.707 7.69588 147.176 8.22665Z" fill="#10552D"/>
<path d="M175.307 17.1272C176.124 18.2296 176.328 19.4544 176.328 20.4343C176.328 22.6799 175.471 24.2314 174.572 25.1704C173.552 26.2728 171.878 27.2526 169.346 27.2526C166.815 27.2526 165.141 26.2728 164.12 25.1704C163.222 24.2314 162.365 22.7207 162.365 20.4343C162.365 19.4544 162.528 18.1888 163.385 17.1272C163.875 16.4331 164.692 15.7799 165.713 15.3308C164.773 14.9225 164.161 14.2692 163.753 13.6568C163.181 12.7586 162.936 11.6154 162.936 10.6355C162.936 8.8799 163.589 7.20594 164.814 6.02192C165.508 5.36867 166.937 4.30713 169.387 4.30713C171.837 4.30713 173.225 5.32784 173.96 6.02192C175.185 7.20594 175.838 8.8799 175.838 10.6355C175.838 11.6154 175.593 12.7586 175.021 13.6568C174.613 14.2692 174.001 14.9225 173.062 15.3308C174.082 15.7799 174.899 16.4331 175.389 17.1272H175.307ZM166.692 17.8213C166.039 18.4746 165.672 19.5361 165.672 20.516C165.672 21.3734 165.998 22.3941 166.652 23.129C167.101 23.6598 167.958 24.2722 169.305 24.2722C170.653 24.2722 171.51 23.6598 171.959 23.129C172.613 22.3941 172.939 21.4142 172.939 20.516C172.939 19.5361 172.572 18.4746 171.918 17.8213C171.265 17.1681 170.244 16.8006 169.305 16.8006C168.366 16.8006 167.346 17.1681 166.692 17.8213ZM166.897 8.22665C166.325 8.79824 165.958 9.69647 165.958 10.6763C165.958 11.6562 166.366 12.5136 166.856 13.0036C167.468 13.616 168.448 13.9834 169.305 13.9834C170.163 13.9834 171.184 13.616 171.755 13.0036C172.245 12.5136 172.653 11.6971 172.653 10.6763C172.653 9.65564 172.286 8.79824 171.714 8.22665C171.143 7.69588 170.326 7.32842 169.305 7.32842C168.285 7.32842 167.427 7.69588 166.897 8.22665Z" fill="#10552D"/>
<path d="M204.009 7.81772H197.15L196.048 11.4923C196.375 11.4923 196.742 11.4106 197.069 11.4106C198.947 11.4106 200.825 12.023 202.172 13.3704C203.234 14.3911 204.336 16.1467 204.336 19.0455C204.336 21.4544 203.56 23.455 202.091 24.9248C200.335 26.6396 198.212 27.1703 195.925 27.1703C194.619 27.1703 193.108 27.007 191.679 26.1905C191.353 25.9863 190.087 25.2106 189.066 23.6183L191.638 21.4952C191.638 21.4952 192.292 22.7609 193.353 23.4141C194.088 23.9041 195.109 24.1899 196.252 24.1899C198.049 24.1899 199.069 23.4958 199.641 22.965C200.294 22.3118 201.07 21.0869 201.07 19.2088C201.07 17.3307 200.457 16.2692 199.722 15.6159C198.62 14.5952 197.15 14.3911 196.089 14.3911C195.109 14.3911 194.374 14.5136 193.476 14.8402C192.782 15.126 192.128 15.4118 191.516 15.8201L194.823 4.59229H204.009V7.73607V7.81772Z" fill="#10552D"/>
<path d="M223.321 17.1272C224.138 18.2296 224.342 19.4544 224.342 20.4343C224.342 22.6799 223.485 24.2314 222.586 25.1704C221.566 26.2728 219.892 27.2526 217.36 27.2526C214.829 27.2526 213.155 26.2728 212.134 25.1704C211.236 24.2314 210.379 22.7207 210.379 20.4343C210.379 19.4544 210.542 18.1888 211.399 17.1272C211.889 16.4331 212.706 15.7799 213.727 15.3308C212.788 14.9225 212.175 14.2692 211.767 13.6568C211.195 12.7586 210.95 11.6154 210.95 10.6355C210.95 8.8799 211.604 7.20594 212.828 6.02192C213.523 5.36867 214.952 4.30713 217.401 4.30713C219.851 4.30713 221.239 5.32784 221.974 6.02192C223.199 7.20594 223.852 8.8799 223.852 10.6355C223.852 11.6154 223.607 12.7586 223.036 13.6568C222.627 14.2692 222.015 14.9225 221.076 15.3308C222.097 15.7799 222.913 16.4331 223.403 17.1272H223.321ZM214.707 17.8213C214.053 18.4746 213.686 19.5361 213.686 20.516C213.686 21.3734 214.013 22.3941 214.666 23.129C215.115 23.6598 215.972 24.2722 217.32 24.2722C218.667 24.2722 219.524 23.6598 219.973 23.129C220.627 22.3941 220.953 21.4142 220.953 20.516C220.953 19.5361 220.586 18.4746 219.933 17.8213C219.279 17.1681 218.259 16.8006 217.32 16.8006C216.381 16.8006 215.36 17.1681 214.707 17.8213ZM214.911 8.22665C214.339 8.79824 213.972 9.69647 213.972 10.6763C213.972 11.6562 214.38 12.5136 214.87 13.0036C215.482 13.616 216.462 13.9834 217.32 13.9834C218.177 13.9834 219.198 13.616 219.769 13.0036C220.259 12.5136 220.668 11.6971 220.668 10.6763C220.668 9.65564 220.3 8.79824 219.728 8.22665C219.157 7.69588 218.34 7.32842 217.32 7.32842C216.299 7.32842 215.441 7.69588 214.911 8.22665Z" fill="#10552D"/>
<path d="M229.854 10.3497C229.936 8.55328 230.711 7.04263 231.732 6.02192C233.283 4.5521 235.121 4.30713 236.591 4.30713C238.305 4.30713 239.938 4.63376 241.367 6.1444C242.551 7.32843 242.96 8.75742 242.96 10.3497C242.96 11.4113 242.756 12.3503 242.184 13.2894C241.572 14.2692 240.837 14.8 240.183 15.1675C241.327 15.6166 242.021 16.3515 242.388 16.9231C243.041 17.8621 243.327 19.087 243.327 20.3527C243.327 22.5574 242.511 24.2314 241.449 25.2929C239.857 26.8852 237.775 27.2118 236.019 27.2118C234.263 27.2118 232.508 26.8852 231.079 25.3337C230.099 24.2722 229.364 22.5166 229.201 20.8018H232.467C232.63 21.7817 233.12 22.6799 233.651 23.2106C234.1 23.6598 234.957 24.1905 236.346 24.1905C237.366 24.1905 238.346 23.7822 238.959 23.2515C239.612 22.639 240.143 21.6183 240.143 20.1077C240.143 19.3728 240.02 18.3112 239.163 17.4947C238.183 16.5556 236.999 16.5148 236.305 16.5148H235.652V13.6568H236.101C237.53 13.6568 238.428 13.2077 238.918 12.6769C239.449 12.1462 239.775 11.3296 239.775 10.3089C239.775 9.12487 239.285 8.43079 238.918 8.06334C238.142 7.32843 237.203 7.24677 236.55 7.24677C235.733 7.24677 234.835 7.36925 234.1 8.14499C233.324 8.96156 233.161 10.1456 233.161 10.2681H229.895L229.854 10.3497Z" fill="#10552D"/>
<path d="M28.083 29.9591C24.82 29.9591 21.557 29.141 18.3347 27.5458C15.1125 25.9506 12.2166 23.8237 9.64698 21.2468C7.07736 18.67 4.99719 15.7659 3.36568 12.5346C1.77496 9.30324 1 6.07193 1 2.79972C1 2.30889 1.16315 1.85896 1.53024 1.53173C1.89733 1.20451 2.3052 1 2.79466 1H8.42335C8.79044 1 9.11674 1.12271 9.40225 1.36812C9.68776 1.61354 9.85091 1.98166 9.93249 2.39069L11.0338 7.46262C11.0745 7.83075 11.0745 8.19887 11.0338 8.48519C10.9522 8.81241 10.8298 9.05783 10.6259 9.26234L6.62869 13.3117C8.13783 15.8068 9.81013 17.9746 11.6864 19.8152C13.5626 21.6559 15.6428 23.2511 18.0084 24.519L21.8017 20.5924C22.0872 20.3061 22.3727 20.1016 22.7398 19.9788C23.1069 19.8561 23.4332 19.8561 23.8003 19.9379L28.5724 21.0014C28.9803 21.0832 29.3066 21.2877 29.5921 21.615C29.8776 21.9422 30 22.3103 30 22.7602V28.2003C30 28.6911 29.8369 29.141 29.4698 29.4683C29.1027 29.8364 28.6948 30 28.2053 30L28.083 29.9591ZM5.36428 11.103L8.62729 7.78984L7.68917 3.37236H3.40647C3.40647 4.43583 3.56962 5.5811 3.89592 6.80818C4.22222 8.03526 4.71167 9.46685 5.36428 11.103ZM20.1702 25.7052C21.2714 26.1961 22.4543 26.646 23.7595 26.9732C25.0239 27.3004 26.2883 27.464 27.512 27.5458V23.2511L23.3924 22.3921L20.211 25.7461L20.1702 25.7052Z" fill="#005B26" stroke="#005B26" stroke-miterlimit="10"/>
</svg>
