<svg width="317" height="790" viewBox="0 0 317 790" fill="none" xmlns="http://www.w3.org/2000/svg">
<g clip-path="url(#clip0_198_82)">
<path d="M200.748 391.411H206.271C218.319 391.411 228.085 381.645 228.085 369.599V21.8114C228.085 9.76523 218.319 -0.00012207 206.271 -0.00012207H200.748C188.7 -0.00012207 178.934 9.76523 178.934 21.8114V369.599C178.934 381.645 188.7 391.411 200.748 391.411Z" fill="#F39B9B"/>
<path d="M110.729 391.411H116.252C128.299 391.411 138.066 381.645 138.066 369.599V21.8114C138.066 9.76523 128.299 -0.00012207 116.252 -0.00012207H110.729C98.6813 -0.00012207 88.9146 9.76523 88.9146 21.8114L88.9146 369.599C88.9146 381.645 98.6813 391.411 110.729 391.411Z" fill="#F39B9B"/>
<path d="M76.8569 591.396C107.6 609.986 127.297 642.381 127.297 678.366L127.297 790L189.795 789.54V694.655C189.795 649.652 213.174 607.869 251.557 584.493C289.939 561.117 317.092 541.607 317.092 489.056L317.092 26.045C317.092 9.47926 307.243 1.93267 296.382 1.93267C285.521 1.93267 275.212 9.38723 275.672 26.137L275.672 432.641C275.672 493.658 254.318 581.732 158.592 581.732C62.8662 581.732 41.5119 493.658 41.5119 432.641L41.5119 25.2167C41.7881 9.75536 33.5961 0 21.2622 0C7.63968 0 -0.552245 8.46692 2.00905e-05 24.5725L2.00905e-05 489.056C2.00905e-05 546.392 73.1751 589.095 76.8569 591.304V591.396Z" fill="#F39B9B"/>
</g>
<defs>
<clipPath id="clip0_198_82">
<rect width="317" height="790" fill="white"/>
</clipPath>
</defs>
</svg>
